<svg width="18" height="28" viewBox="0 0 18 28" fill="none" xmlns="http://www.w3.org/2000/svg">
<path d="M5 18.75C4.64583 18.75 4.34896 18.6302 4.10938 18.3906C3.86979 18.151 3.75 17.8542 3.75 17.5V15C4.10417 15 4.40104 14.8802 4.64062 14.6406C4.88021 14.401 5 14.1042 5 13.75C5 13.3958 4.88021 13.099 4.64062 12.8594C4.40104 12.6198 4.10417 12.5 3.75 12.5V10C3.75 9.64583 3.86979 9.34896 4.10938 9.10938C4.34896 8.86979 4.64583 8.75 5 8.75H12.5C12.8542 8.75 13.151 8.86979 13.3906 9.10938C13.6302 9.34896 13.75 9.64583 13.75 10V12.5C13.3958 12.5 13.099 12.6198 12.8594 12.8594C12.6198 13.099 12.5 13.3958 12.5 13.75C12.5 14.1042 12.6198 14.401 12.8594 14.6406C13.099 14.8802 13.3958 15 13.75 15V17.5C13.75 17.8542 13.6302 18.151 13.3906 18.3906C13.151 18.6302 12.8542 18.75 12.5 18.75H5ZM8.75 16.875C8.91667 16.875 9.0625 16.8125 9.1875 16.6875C9.3125 16.5625 9.375 16.4167 9.375 16.25C9.375 16.0833 9.3125 15.9375 9.1875 15.8125C9.0625 15.6875 8.91667 15.625 8.75 15.625C8.58333 15.625 8.4375 15.6875 8.3125 15.8125C8.1875 15.9375 8.125 16.0833 8.125 16.25C8.125 16.4167 8.1875 16.5625 8.3125 16.6875C8.4375 16.8125 8.58333 16.875 8.75 16.875ZM8.75 14.375C8.91667 14.375 9.0625 14.3125 9.1875 14.1875C9.3125 14.0625 9.375 13.9167 9.375 13.75C9.375 13.5833 9.3125 13.4375 9.1875 13.3125C9.0625 13.1875 8.91667 13.125 8.75 13.125C8.58333 13.125 8.4375 13.1875 8.3125 13.3125C8.1875 13.4375 8.125 13.5833 8.125 13.75C8.125 13.9167 8.1875 14.0625 8.3125 14.1875C8.4375 14.3125 8.58333 14.375 8.75 14.375ZM8.75 11.875C8.91667 11.875 9.0625 11.8125 9.1875 11.6875C9.3125 11.5625 9.375 11.4167 9.375 11.25C9.375 11.0833 9.3125 10.9375 9.1875 10.8125C9.0625 10.6875 8.91667 10.625 8.75 10.625C8.58333 10.625 8.4375 10.6875 8.3125 10.8125C8.1875 10.9375 8.125 11.0833 8.125 11.25C8.125 11.4167 8.1875 11.5625 8.3125 11.6875C8.4375 11.8125 8.58333 11.875 8.75 11.875ZM2.5 27.5C1.8125 27.5 1.22396 27.2552 0.734375 26.7656C0.244792 26.276 0 25.6875 0 25V2.5C0 1.8125 0.244792 1.22396 0.734375 0.734375C1.22396 0.244792 1.8125 0 2.5 0H15C15.6875 0 16.276 0.244792 16.7656 0.734375C17.2552 1.22396 17.5 1.8125 17.5 2.5V25C17.5 25.6875 17.2552 26.276 16.7656 26.7656C16.276 27.2552 15.6875 27.5 15 27.5H2.5ZM2.5 23.75V25H15V23.75H2.5ZM2.5 21.25H15V6.25H2.5V21.25ZM2.5 3.75H15V2.5H2.5V3.75Z" fill="white"/>
</svg>
