<svg width="19" height="24" viewBox="0 0 19 24" fill="none" xmlns="http://www.w3.org/2000/svg">
<path d="M9.5 15.0667C10.6536 14.0222 11.5866 13.1611 12.2991 12.4833C13.0116 11.8056 13.5601 11.2222 13.9446 10.7333C14.3292 10.2444 14.5893 9.81667 14.725 9.45C14.8607 9.08333 14.9286 8.68889 14.9286 8.26667C14.9286 7.46667 14.6345 6.77778 14.0464 6.2C13.4583 5.62222 12.7571 5.33333 11.9429 5.33333C11.4679 5.33333 11.0098 5.42778 10.5687 5.61667C10.1277 5.80556 9.77143 6.06667 9.5 6.4C9.22857 6.06667 8.87798 5.80556 8.44821 5.61667C8.01845 5.42778 7.55476 5.33333 7.05714 5.33333C6.24286 5.33333 5.54167 5.62222 4.95357 6.2C4.36548 6.77778 4.07143 7.46667 4.07143 8.26667C4.07143 8.68889 4.13363 9.07778 4.25804 9.43333C4.38244 9.78889 4.6369 10.2111 5.02143 10.7C5.40595 11.1889 5.94881 11.7722 6.65 12.45C7.35119 13.1278 8.30119 14 9.5 15.0667ZM0 24V2.66667C0 1.93333 0.265774 1.30556 0.797321 0.783333C1.32887 0.261111 1.96786 0 2.71429 0H16.2857C17.0321 0 17.6711 0.261111 18.2027 0.783333C18.7342 1.30556 19 1.93333 19 2.66667V24L9.5 20L0 24ZM2.71429 19.9333L9.5 17.0667L16.2857 19.9333V2.66667H2.71429V19.9333Z" fill="white"/>
</svg>
