<svg width="27" height="28" viewBox="0 0 27 28" fill="none" xmlns="http://www.w3.org/2000/svg">
<path d="M13.4662 28C9.96992 28 6.93609 26.7983 4.36466 24.395C1.79323 21.9917 0.338346 18.9933 0 15.4H2.7406C3.07895 18.2233 4.2688 20.5625 6.31015 22.4175C8.3515 24.2725 10.7368 25.2 13.4662 25.2C16.4887 25.2 19.0489 24.115 21.1466 21.945C23.2444 19.775 24.2932 17.1267 24.2932 14C24.2932 10.8733 23.2444 8.225 21.1466 6.055C19.0489 3.885 16.4887 2.8 13.4662 2.8C11.5263 2.8 9.72744 3.29583 8.06955 4.2875C6.41165 5.27917 5.09774 6.65 4.12782 8.4H8.05263V11.2H0.203008C0.857143 7.93333 2.42481 5.25 4.90601 3.15C7.38722 1.05 10.2406 0 13.4662 0C15.3383 0 17.0977 0.3675 18.7444 1.1025C20.391 1.8375 21.8233 2.835 23.0414 4.095C24.2594 5.355 25.2237 6.83667 25.9342 8.54C26.6447 10.2433 27 12.0633 27 14C27 15.9367 26.6447 17.7567 25.9342 19.46C25.2237 21.1633 24.2594 22.645 23.0414 23.905C21.8233 25.165 20.391 26.1625 18.7444 26.8975C17.0977 27.6325 15.3383 28 13.4662 28ZM17.2556 19.88L12.1128 14.56V7H14.8195V13.44L19.1504 17.92L17.2556 19.88Z" fill="white"/>
</svg>
