<svg width="50" height="54" viewBox="0 0 50 54" fill="none" xmlns="http://www.w3.org/2000/svg">
<g clip-path="url(#clip0_576_2828)">
<path d="M6.11395 17.6822C2.64913 18.2859 0 21.3116 0 24.9317V32.2771H17.0526C16.6754 29.2863 15.5438 26.3916 13.5703 24.0655C13.0442 23.4444 12.465 22.8675 11.8332 22.3512L6.11395 17.6816V17.6822Z" fill="white"/>
<path d="M25 49.855H32.3775V32.2774H42.6318C46.6846 32.2774 50 28.9717 50 24.9319V17.5771H35.5702C33.7368 19.9469 32.3687 22.6757 31.4298 25.9372C29.9035 31.2541 29.7459 36.9383 27.7017 42.1067C26.5 45.1237 24.7717 47.5371 22.6667 49.479C23.3949 49.7241 24.1843 49.855 25 49.855Z" fill="white"/>
<path d="M32.3776 10.9575V7.35431C32.3776 3.31397 29.0529 -0.000488281 25.0001 -0.000488281H17.6226V8.75309C18.4733 8.39452 19.4034 8.1937 20.3855 8.1937C24.1312 8.1937 27.1838 11.0972 27.4209 14.7696C28.991 13.4052 30.6492 12.1287 32.377 10.9569L32.3776 10.9575Z" fill="white"/>
<path d="M41.3683 8.96387C16.8944 24.8272 39.0263 46.515 6.85962 54.0007C22.4035 46.7251 23.0965 28.1766 13.4827 20.3415L22.8951 23.2712C22.8951 23.2712 29.6145 14.0188 41.3689 8.96445L41.3683 8.96387Z" fill="white"/>
<path d="M20.386 10.8003C22.8331 10.8003 24.8248 12.7765 24.8248 15.2254C24.8248 17.6743 22.8337 19.6418 20.386 19.6418C17.9383 19.6418 15.9473 17.6655 15.9473 15.2254C15.9473 12.7852 17.9383 10.8003 20.386 10.8003Z" fill="white"/>
</g>
<defs>
<clipPath id="clip0_576_2828">
<rect width="50" height="54" fill="white"/>
</clipPath>
</defs>
</svg>
