<svg width="67" height="57" viewBox="0 0 67 57" fill="none" xmlns="http://www.w3.org/2000/svg">
<path d="M49.0117 32.5229V39.7475C49.0117 44.3817 45.1615 48.1385 40.4121 48.1385H9.00195L1 55.9463V25.0067C1 20.3725 4.85024 16.6157 9.59961 16.6157H17.0039V24.1319C17.0039 28.7661 20.8541 32.5229 25.6035 32.5229H49.0117Z" stroke="#1E232F" stroke-width="2" stroke-miterlimit="10" stroke-linecap="round" stroke-linejoin="round"/>
<path d="M65.0156 9.39094V40.3306L57.0137 32.5228H25.6035C20.8541 32.5228 17.0039 28.766 17.0039 24.1318V9.39094C17.0039 4.7568 20.8541 0.999986 25.6035 0.999986H56.416C61.1654 0.999986 65.0156 4.7568 65.0156 9.39094Z" stroke="#126966" stroke-width="2" stroke-miterlimit="10" stroke-linecap="round" stroke-linejoin="round"/>
<path d="M29.0075 18.5596C30.0496 18.5596 31.0479 17.6655 30.9997 16.6157C30.9514 15.5625 30.1244 14.6719 29.0075 14.6719C27.9655 14.6719 26.9671 15.5659 27.0154 16.6157C27.0637 17.6689 27.8907 18.5596 29.0075 18.5596Z" fill="#126966"/>
<path d="M41.0097 18.5596C42.0518 18.5596 43.0501 17.6655 43.0019 16.6157C42.9536 15.5625 42.1266 14.6719 41.0097 14.6719C39.9677 14.6719 38.9693 15.5659 39.0175 16.6157C39.0659 17.6689 39.8929 18.5596 41.0097 18.5596Z" fill="#126966"/>
<path d="M53.0134 18.5596C54.0554 18.5596 55.0538 17.6655 55.0056 16.6157C54.9572 15.5625 54.1302 14.6719 53.0134 14.6719C51.9714 14.6719 50.973 15.5659 51.0212 16.6157C51.0696 17.6689 51.8966 18.5596 53.0134 18.5596Z" fill="#126966"/>
</svg>
