<svg width="64" height="51" viewBox="0 0 64 51" fill="none" xmlns="http://www.w3.org/2000/svg">
<path d="M12.5781 14.9837C19.0412 12.0268 26.044 12.0268 32.5072 14.9806" stroke="#126966" stroke-width="1.5" stroke-miterlimit="10" stroke-linecap="round" stroke-linejoin="round"/>
<path d="M4.86719 8.31351C8.59174 3.82214 15.4435 0.75 22.5435 0.75C29.6435 0.75 36.4917 3.82203 40.2163 8.31351" stroke="#126966" stroke-width="1.5" stroke-miterlimit="10" stroke-linecap="round" stroke-linejoin="round"/>
<path d="M42.9291 43.6626L35.5089 50.0838L22.5431 38.8694M13.7157 31.2343L7.53334 25.8868C0.465737 19.7739 0.814732 13.2033 4.86682 8.31348L22.5431 23.6022" stroke="#126966" stroke-width="1.5" stroke-miterlimit="10" stroke-linecap="round" stroke-linejoin="round"/>
<path d="M43.0515 16.6737C43.3503 13.6452 42.2491 10.7693 40.2158 8.31348L0.75 42.4487L9.57743 50.0838L31.0323 31.5269" stroke="#126966" stroke-width="1.5" stroke-miterlimit="10" stroke-linecap="round" stroke-linejoin="round"/>
<path d="M47.0824 44.1327C55.9673 44.1327 63.2112 37.8672 63.2112 30.1824C63.2112 22.5006 55.9673 16.2351 47.0824 16.2351C38.201 16.2351 30.957 22.5006 30.957 30.1824C30.957 37.8672 38.201 44.1327 47.0824 44.1327Z" stroke="#1E232F" stroke-width="1.5" stroke-miterlimit="10" stroke-linecap="round" stroke-linejoin="round"/>
<path d="M50.4829 23.0916H43.6852V27.2436H38.8848V33.1201H43.6852V37.2753H50.4829V33.1201H55.2836V27.2436H50.4829V23.0916Z" stroke="#1E232F" stroke-width="1.5" stroke-miterlimit="10" stroke-linecap="round" stroke-linejoin="round"/>
</svg>
