<svg width="66" height="58" viewBox="0 0 66 58" fill="none" xmlns="http://www.w3.org/2000/svg">
<g filter="url(#filter0_d_594_1064)">
<path d="M52.2074 27.0706C44.9595 26.5854 44.4559 20.0394 44.4393 19.8086V12.9998C49.7741 9.85193 49.8948 6.81986 49.8761 6.34301L49.8786 0.891958C49.8768 0.65587 49.7676 0.429888 49.5746 0.262946C49.3815 0.0960029 49.1203 0.00153604 48.8473 3.01668e-08H16.7934C16.658 -3.04387e-05 16.5239 0.0230198 16.3988 0.0678341C16.2736 0.112648 16.1599 0.178348 16.0642 0.26118C15.9684 0.344012 15.8924 0.442353 15.8406 0.550584C15.7888 0.658815 15.7622 0.774816 15.7622 0.891958L15.7662 6.28295C15.7517 6.42548 15.5185 9.68686 21.3108 13.0623L21.3122 19.7747C21.2941 20.0534 20.7905 26.5994 13.5426 27.0846C4.48642 27.6925 4.01762 32.4424 4 32.7037V48.1222C4.00177 48.3584 4.11106 48.5844 4.30419 48.7514C4.49731 48.9183 4.75871 49.0127 5.03176 49.0142L60.7193 49.0002C60.9926 49 61.2548 48.906 61.448 48.7388C61.6413 48.5715 61.7499 48.3448 61.75 48.1083L61.7475 32.6306C61.7324 32.4284 61.2636 27.6786 52.2074 27.0706ZM17.8247 6.35958V1.78393H47.8155L47.8135 6.35958C47.8135 6.37265 47.815 6.40487 47.816 6.41794C47.817 6.44407 47.887 9.06855 42.547 11.9448C36.6868 15.1015 34.6016 15.3654 32.9681 15.3654C30.8779 15.3582 29.2494 15.2095 23.0912 11.9449C17.7512 9.06855 17.8212 6.44405 17.8247 6.35958ZM35.7636 16.822C35.4271 18.4971 35.2164 20.1893 35.133 21.888C34.3827 22.2785 33.7977 22.8676 33.4646 23.5681C33.165 24.0776 32.9807 24.3442 32.8111 24.3816C32.0622 23.7663 31.8043 22.4503 30.6198 21.9545C30.5365 20.2433 30.3267 18.5384 29.9917 16.8503C31.8835 17.2906 33.8777 17.2808 35.7636 16.822ZM6.0625 47.2302L6.05897 32.7751C6.07459 32.6349 6.51921 29.3449 13.7017 28.8632C20.9587 28.3772 23.2005 22.7667 23.3732 19.8226V14.1789C24.6935 14.8692 26.0581 15.4939 27.4605 16.05C27.5168 16.1775 27.6064 16.292 27.7223 16.3845C27.8522 16.6608 28.2304 17.7622 28.523 21.517C28.1434 21.5186 27.7647 21.5494 27.3915 21.609C24.1198 22.5431 24.3135 25.6918 24.3183 27.8118C24.2745 29.9372 24.1924 33.8936 28.0883 34.1139C28.3608 34.1424 28.6355 34.1507 28.9096 34.1387C28.9128 35.1447 28.9122 36.7857 28.9142 38.4179C28.9159 40.1309 28.9145 41.8883 28.9159 43.2829C29.0219 45.7345 28.5888 45.6284 29.4349 47.2241L6.0625 47.2302ZM34.7713 45.5622C34.7654 45.8838 34.6511 46.197 34.4424 46.4633C34.2338 46.7296 33.9398 46.9374 33.5966 47.0614C33.2535 47.1854 32.8759 47.2201 32.5103 47.1613C32.1446 47.1024 31.8067 46.9526 31.538 46.7302C30.6833 45.809 31.0636 45.611 30.9785 44.1284H34.7714C34.7713 44.9263 34.7713 45.4653 34.7713 45.5622ZM34.7717 42.3445H30.9783C30.978 41.4 30.9777 40.3366 30.9773 39.2706H34.7728C34.7723 40.3359 34.772 41.3996 34.7717 42.3445ZM34.7738 37.4866H30.9762C30.975 35.7803 30.9732 34.2673 30.9705 33.5038C31.0913 33.4198 31.2041 33.3275 31.308 33.2281C31.9602 32.7457 32.237 31.6796 32.8125 31.2725C32.9767 31.3161 33.1655 31.5896 33.4566 32.0826C33.7398 32.67 34.1958 33.183 34.7794 33.5706C34.7768 34.333 34.775 35.8142 34.7738 37.4866ZM35.293 31.2708C34.1611 28.9366 31.5303 28.8551 30.3442 31.2726C29.8184 32.0469 29.7902 32.4291 28.2853 32.3388C26.6165 32.2438 26.3229 30.6184 26.3808 27.824C26.3425 25.791 26.3674 23.7589 27.9212 23.3373C29.3254 23.1911 29.8237 23.398 30.3341 24.3738C31.5341 26.8448 34.2093 26.667 35.3036 24.3754C35.4299 24.1273 35.5938 23.8947 35.791 23.6839C36.2557 23.2658 36.6546 23.258 37.717 23.3373C39.2742 23.7581 39.2999 25.808 39.2573 27.8432C39.3132 30.6184 39.0192 32.2438 37.288 32.3439C35.9144 32.4225 35.7959 32.0503 35.293 31.2708ZM59.6875 47.2163L36.3158 47.2224C37.1635 45.6315 36.727 45.7137 36.8345 43.2365C36.8341 40.5284 36.8363 36.1728 36.8404 34.1502C41.1867 34.368 41.4614 30.1779 41.3198 27.8231C41.3252 25.6985 41.5222 22.5438 38.2453 21.6082C37.909 21.5549 37.5681 21.5259 37.2262 21.5215C37.5197 17.761 37.8973 16.6607 38.0267 16.3854C38.1556 16.2802 38.2504 16.1477 38.3019 16.0011C39.6994 15.4405 41.0599 14.8132 42.3771 14.1222L42.3783 19.8539C42.5495 22.7528 44.7913 28.3632 52.0483 28.8493C59.2308 29.331 59.6755 32.621 59.6875 32.6898L59.6875 47.2163Z" fill="#126966"/>
<path d="M30.8789 44.1338C30.8999 44.4997 30.8921 44.7866 30.8818 45.0264C30.8717 45.2637 30.8585 45.4646 30.8701 45.6465C30.8821 45.8325 30.9199 46.0034 31.0127 46.1885C31.1045 46.3715 31.2481 46.5642 31.4648 46.7979L31.4639 46.7988L31.4746 46.8076C31.7578 47.0419 32.1123 47.1983 32.4941 47.2598C32.8763 47.3212 33.2715 47.2851 33.6309 47.1553C33.9901 47.0254 34.3004 46.8075 34.5215 46.5254C34.7427 46.2431 34.8646 45.9088 34.8711 45.5645V44.0283H30.873L30.8789 44.1338ZM30.877 39.2705C30.8774 40.3365 30.8777 41.4002 30.8779 42.3447V42.4443H34.8721V42.3447C34.8723 41.3998 34.8725 40.3358 34.873 39.2705V39.1709H30.877V39.2705ZM32.7549 31.1904C32.4458 31.4091 32.2214 31.8002 32.0029 32.1709C31.806 32.5049 31.6109 32.829 31.3594 33.0566L31.248 33.1475L31.2393 33.1562C31.1392 33.2521 31.0296 33.3407 30.9131 33.4219L30.8701 33.4521V33.5039C30.8728 34.2672 30.8748 35.7801 30.876 37.4863V37.5869H34.874V37.4863C34.8752 35.8143 34.8763 34.3337 34.8789 33.5713L34.8799 33.5166L34.835 33.4873C34.3365 33.1562 33.934 32.7326 33.6572 32.25L33.5469 32.0391L33.543 32.0322L33.3408 31.7002C33.2784 31.6026 33.2201 31.5187 33.166 31.4482C33.0616 31.3124 32.9555 31.207 32.8379 31.1758L32.793 31.1641L32.7549 31.1904ZM5.95898 32.7754L5.96289 47.2305V47.3301H6.0625L29.4346 47.3242H29.6006L29.5234 47.1777C29.104 46.3867 29.0083 46.0298 28.998 45.5723C28.9928 45.3364 29.0098 45.0763 29.0225 44.7119C29.035 44.3502 29.0423 43.8943 29.0156 43.2783C29.0149 42.5822 29.0157 41.7958 29.0156 40.9697C29.0156 40.142 29.0155 39.2744 29.0146 38.418C29.0127 36.7863 29.013 35.1448 29.0098 34.1387L29.0088 34.0342L28.9053 34.0391C28.6361 34.0509 28.3662 34.0426 28.0986 34.0146L28.0938 34.0137C27.1376 33.9595 26.433 33.6769 25.9121 33.2568C25.3907 32.8362 25.0463 32.2721 24.8203 31.6436C24.3666 30.3816 24.396 28.8796 24.418 27.8135V27.8115C24.4155 26.7447 24.3673 25.4458 24.7217 24.2949C25.0725 23.1557 25.8174 22.1645 27.4111 21.707C27.778 21.6486 28.1503 21.6187 28.5234 21.6172L28.6309 21.6162L28.623 21.5088C28.3304 17.7538 27.9509 16.6361 27.8125 16.3418L27.8027 16.3213L27.7852 16.3066L27.7109 16.2402C27.6426 16.1714 27.5887 16.0934 27.5518 16.0098L27.5352 15.9727L27.4971 15.957C26.098 15.4022 24.737 14.7784 23.4199 14.0898L23.2734 14.0137V19.8223C23.187 21.2759 22.5886 23.3904 21.1162 25.2012C19.6445 27.0111 17.2958 28.5225 13.6953 28.7637C10.0898 29.0055 8.15856 29.9526 7.12598 30.8721C6.09402 31.791 5.97014 32.6729 5.95996 32.7637L6.05859 32.7754L5.95898 32.7637V32.7754ZM29.502 23.3428C29.1127 23.1766 28.6147 23.1651 27.9111 23.2383H27.9023L27.8955 23.2412C27.0688 23.4655 26.657 24.1203 26.457 24.9531C26.3077 25.5751 26.2726 26.3094 26.2725 27.0654L26.2812 27.8262C26.2525 29.2205 26.3105 30.3409 26.5918 31.127C26.7334 31.5227 26.9332 31.8403 27.2129 32.0645C27.4583 32.2612 27.759 32.3813 28.1211 32.4248L28.2793 32.4385C29.0351 32.4839 29.4488 32.4135 29.7393 32.2119C29.8836 32.1117 29.9918 31.9833 30.0947 31.8359C30.1461 31.7624 30.1972 31.6826 30.251 31.5986C30.3051 31.5142 30.362 31.4245 30.4268 31.3291L30.3438 31.2725L30.4277 31.3291L30.4336 31.3164C31.0133 30.135 31.9365 29.5804 32.8379 29.5898C33.7399 29.5993 34.6494 30.1743 35.2021 31.3135V31.3145L35.209 31.3252C35.3321 31.5161 35.4377 31.6909 35.543 31.8369C35.6497 31.9849 35.762 32.1126 35.9072 32.2119C36.1998 32.412 36.6017 32.483 37.2939 32.4434C37.7426 32.4174 38.1064 32.292 38.3955 32.0674C38.6839 31.8433 38.8902 31.5267 39.0361 31.1318C39.3261 30.3471 39.3852 29.2303 39.3574 27.8457C39.3787 26.8305 39.3837 25.7959 39.1846 24.9619C38.9846 24.1246 38.5719 23.4642 37.7432 23.2402L37.7344 23.2383L37.7246 23.2373L37.3555 23.2129C37.0119 23.193 36.7426 23.1908 36.5146 23.2256C36.281 23.2612 36.0911 23.3349 35.9072 23.4629L35.7236 23.6094L35.7178 23.6152C35.5652 23.7783 35.4317 23.9545 35.3193 24.1406L35.2148 24.3301L35.2129 24.332C34.6791 25.4499 33.7678 26.0394 32.8564 26.0605C31.9471 26.0815 31.01 25.5372 30.4238 24.3301L30.4229 24.3271L30.3252 24.1494C30.095 23.7535 29.8476 23.4904 29.502 23.3428ZM35.7402 16.7246C33.8696 17.1797 31.8912 17.1896 30.0146 16.7529L29.8633 16.7178L29.8936 16.8701C30.2275 18.5532 30.4364 20.2529 30.5195 21.959L30.5234 22.0225L30.5811 22.0469C31.1447 22.2828 31.4917 22.7143 31.7949 23.1777C31.9427 23.4036 32.0894 23.6531 32.2363 23.8691C32.3864 24.0898 32.55 24.2963 32.748 24.459L32.7852 24.4902L32.833 24.4795C32.9553 24.4523 33.0624 24.3489 33.168 24.2129C33.277 24.0723 33.4012 23.8735 33.5508 23.6191L33.5547 23.6113C33.8775 22.9324 34.446 22.358 35.1787 21.9766L35.2305 21.9502L35.2324 21.8926C35.3156 20.199 35.5258 18.5119 35.8613 16.8418L35.8926 16.6875L35.7402 16.7246ZM17.7246 6.35547C17.7221 6.41646 17.7079 7.1145 18.3691 8.15918C18.9887 9.13803 20.1988 10.4167 22.5566 11.7627L23.0439 12.0332C26.1246 13.6664 28.0781 14.5237 29.5254 14.9727C30.9767 15.4229 31.9174 15.4622 32.9678 15.4658C34.625 15.4658 36.7279 15.1935 42.5947 12.0332C47.9597 9.14355 47.9189 6.48727 47.916 6.41406V6.41016L47.9131 6.35938L47.915 1.78418L47.916 1.68359H17.7246V6.35547ZM59.7871 32.6807L59.7861 32.6729V32.6719C59.786 32.6708 59.7854 32.6696 59.7852 32.668C59.7847 32.6652 59.784 32.6616 59.7832 32.6572C59.7816 32.6482 59.7794 32.6361 59.7764 32.6211C59.7703 32.5909 59.7614 32.5492 59.7471 32.498C59.7183 32.3955 59.6694 32.2534 59.5889 32.085C59.4277 31.7479 59.1386 31.3044 58.623 30.8496C57.5911 29.9393 55.6603 28.9918 52.0547 28.75C48.4543 28.5088 46.1054 26.9977 44.6338 25.1934C43.2517 23.4988 42.6406 21.5412 42.5 20.124L42.4785 19.8477L42.4775 14.1221V13.957L42.3311 14.0332C41.0169 14.7226 39.6591 15.3488 38.2646 15.9082L38.2227 15.9248L38.207 15.9678C38.1622 16.0957 38.0793 16.2133 37.9639 16.3076L37.9463 16.3223L37.9365 16.3428C37.7986 16.6361 37.4204 17.7529 37.127 21.5137L37.1182 21.6201L37.2246 21.6211C37.56 21.6254 37.8947 21.654 38.2246 21.7061C39.8215 22.1642 40.5673 23.1572 40.918 24.2988C41.2721 25.452 41.2225 26.7541 41.2197 27.8232V27.8291C41.2904 29.0031 41.2556 30.6187 40.6719 31.9102C40.3809 32.5538 39.9553 33.1137 39.3408 33.5C38.7266 33.8861 37.9156 34.1043 36.8457 34.0508L36.7402 34.0449V34.1504C36.7361 36.1732 36.734 40.5284 36.7344 43.2363C36.7076 43.8564 36.7149 44.317 36.7275 44.6836C36.7403 45.0536 36.758 45.3193 36.7529 45.5596C36.7431 46.0258 36.6475 46.3876 36.2275 47.1758L36.1494 47.3223H36.3154L59.6875 47.3164H59.7871V32.6807ZM21.4111 13.0049L21.3613 12.9756C18.478 11.2953 17.1028 9.64854 16.4492 8.41309C15.7959 7.17786 15.8597 6.34719 15.8652 6.29297L15.7666 6.2832L15.8662 6.29297V6.2832L15.8623 0.891602C15.8623 0.789912 15.8852 0.688715 15.9307 0.59375C15.9762 0.498605 16.0439 0.411253 16.1299 0.336914C16.2158 0.262604 16.3186 0.202952 16.4326 0.162109C16.5466 0.121316 16.669 0.0996324 16.793 0.0996094H48.8467C49.0976 0.101021 49.3351 0.188681 49.5088 0.338867C49.682 0.488672 49.7767 0.687836 49.7783 0.892578L49.7764 6.34277V6.45801C49.7603 7.15846 49.3636 9.97854 44.3887 12.9141L44.3389 12.9424V19.8086L44.3398 19.8154C44.3486 19.9369 44.4797 21.6499 45.5254 23.3955C46.5744 25.1467 48.5412 26.9249 52.2012 27.1699C56.7115 27.4728 59.0665 28.806 60.2959 30.0723C61.5243 31.3376 61.6408 32.5493 61.6475 32.6377L61.6504 48.1084C61.6503 48.3132 61.556 48.5131 61.3828 48.6631C61.209 48.8135 60.9699 48.9002 60.7188 48.9004L5.03125 48.9131C4.78063 48.9115 4.54268 48.8258 4.36914 48.6758C4.19595 48.526 4.10115 48.3259 4.09961 48.1211V32.71C4.10764 32.5922 4.22543 31.3663 5.4541 30.0938C6.68368 28.8203 9.0384 27.4875 13.5488 27.1846C17.2088 26.9396 19.1754 25.1606 20.2246 23.4033C21.0091 22.0894 21.279 20.7907 21.3691 20.1621L21.4121 19.7812V19.7744L21.4111 13.0625V13.0049Z" stroke="#F9F9F9" stroke-width="0.2"/>
</g>
<defs>
<filter id="filter0_d_594_1064" x="0" y="0" width="65.75" height="57.0142" filterUnits="userSpaceOnUse" color-interpolation-filters="sRGB">
<feFlood flood-opacity="0" result="BackgroundImageFix"/>
<feColorMatrix in="SourceAlpha" type="matrix" values="0 0 0 0 0 0 0 0 0 0 0 0 0 0 0 0 0 0 127 0" result="hardAlpha"/>
<feOffset dy="4"/>
<feGaussianBlur stdDeviation="2"/>
<feComposite in2="hardAlpha" operator="out"/>
<feColorMatrix type="matrix" values="0 0 0 0 0 0 0 0 0 0 0 0 0 0 0 0 0 0 0.25 0"/>
<feBlend mode="normal" in2="BackgroundImageFix" result="effect1_dropShadow_594_1064"/>
<feBlend mode="normal" in="SourceGraphic" in2="effect1_dropShadow_594_1064" result="shape"/>
</filter>
</defs>
</svg>
