<svg width="63" height="49" viewBox="0 0 63 49" fill="none" xmlns="http://www.w3.org/2000/svg">
<path d="M36.9108 39.3109C35.9382 40.92 35.4123 42.7266 35.4123 44.5867V47.5655H27.2848V44.5867C27.2848 41.1744 25.5155 37.9421 22.4639 35.7793C19.5446 33.7104 19.3629 29.9027 22.0754 27.6328H22.0755C24.082 25.9537 24.3876 23.2648 22.7974 21.2801L19.5867 17.2726C14.6087 11.0591 19.7501 2.56714 28.4902 2.56714H34.2067C42.9468 2.56714 48.0882 11.0591 43.1103 17.2726L39.8996 21.2801C38.3094 23.2649 38.615 25.9537 40.6215 27.6329C40.832 27.809 41.0251 27.9945 41.2008 28.1876" stroke="#126966" stroke-width="1.5" stroke-miterlimit="10"/>
<path d="M31.3494 30.511V23.9966C31.3494 21.7889 30.6462 19.6122 29.2455 17.7667C29.1846 17.6864 29.1225 17.6067 29.0592 17.5276L25.8485 13.5202C24.8843 12.3167 25.3059 11.203 25.643 10.6462C25.98 10.0895 26.7984 9.15552 28.4912 9.15552H34.2076C35.9004 9.15552 36.7186 10.0895 37.0558 10.6462C37.393 11.203 37.8145 12.3167 36.8503 13.5202L33.6396 17.5276C33.5762 17.6068 33.514 17.6866 33.453 17.7669C32.0525 19.6125 31.3494 21.789 31.3494 23.9965V30.511Z" stroke="#126966" stroke-width="1.5" stroke-miterlimit="10"/>
<path d="M3.55905 11.5612L1.58899 8.65869C-0.108373 6.15798 0.859517 2.94057 3.75075 1.47247C6.64198 0.00437433 10.3618 0.84153 12.0592 3.34224L12.6882 4.269C13.9258 6.09232 16.1873 7.21222 18.6318 7.21222" stroke="#126966" stroke-width="1.5" stroke-miterlimit="10"/>
<path d="M6.0387 18.516C8.31741 18.516 10.1647 16.9183 10.1647 14.9473C10.1647 12.9764 8.31741 11.3787 6.0387 11.3787C3.75998 11.3787 1.91272 12.9764 1.91272 14.9473C1.91272 16.9183 3.75998 18.516 6.0387 18.516Z" stroke="#126966" stroke-width="1.5" stroke-miterlimit="10"/>
<path d="M56.6578 18.516C58.9366 18.516 60.7838 16.9183 60.7838 14.9473C60.7838 12.9764 58.9366 11.3787 56.6578 11.3787C54.3791 11.3787 52.5319 12.9764 52.5319 14.9473C52.5319 16.9183 54.3791 18.516 56.6578 18.516Z" stroke="#126966" stroke-width="1.5" stroke-miterlimit="10"/>
<path d="M59.1378 11.5612L61.1079 8.65869C62.8052 6.15798 61.8374 2.94057 58.9461 1.47247C56.0549 0.00437433 52.335 0.84153 50.6377 3.34224L50.0086 4.269C48.7711 6.09232 46.5095 7.21222 44.0651 7.21222" stroke="#126966" stroke-width="1.5" stroke-miterlimit="10"/>
<path d="M49.2275 47.566C56.251 47.566 61.9447 42.6414 61.9447 36.5666C61.9447 30.4918 56.251 25.5671 49.2275 25.5671C42.204 25.5671 36.5104 30.4918 36.5104 36.5666C36.5104 42.6414 42.204 47.566 49.2275 47.566Z" stroke="#1E232F" stroke-width="1.5" stroke-miterlimit="10"/>
<path d="M44.9635 32.9409L53.4197 40.2548" stroke="#1E232F" stroke-width="1.5" stroke-miterlimit="10"/>
<path d="M53.4197 32.9409L44.9635 40.2548" stroke="#1E232F" stroke-width="1.5" stroke-miterlimit="10"/>
</svg>
