<svg width="56" height="53" viewBox="0 0 56 53" fill="none" xmlns="http://www.w3.org/2000/svg">
<path d="M43.6894 48.0757C43.4721 48.0757 43.2627 48.005 43.103 47.8776C42.9432 47.7502 42.8447 47.5754 42.8272 47.388C42.8096 47.2007 42.8743 47.0145 43.0082 46.8665C43.1422 46.7185 43.3357 46.6195 43.5502 46.5893C45.0593 46.3782 46.4316 45.708 47.4202 44.6995C48.4088 43.691 48.9487 42.4104 48.9426 41.0882C48.9427 40.5403 48.8513 39.9954 48.6711 39.4701C48.6389 39.3759 48.6284 39.2772 48.6404 39.1795C48.6523 39.0818 48.6864 38.9871 48.7406 38.9008C48.7949 38.8145 48.8682 38.7382 48.9566 38.6765C49.0449 38.6147 49.1464 38.5685 49.2553 38.5407C49.3642 38.5129 49.4784 38.5038 49.5914 38.5142C49.7043 38.5245 49.8138 38.5539 49.9136 38.6009C50.0134 38.6478 50.1015 38.7112 50.1729 38.7876C50.2443 38.864 50.2977 38.9518 50.3299 39.046C50.5581 39.7088 50.6746 40.3966 50.6758 41.0882C50.6832 42.7655 49.998 44.39 48.7437 45.6692C47.4894 46.9484 45.7483 47.7983 43.8339 48.066C43.7861 48.0723 43.7378 48.0755 43.6894 48.0757Z" fill="#126966"/>
<path d="M11.3716 48.0757C11.3244 48.0754 11.2773 48.0721 11.2307 48.066C9.31627 47.7983 7.57519 46.9484 6.32088 45.6692C5.06656 44.39 4.3814 42.7655 4.38873 41.0882C4.38995 40.3966 4.50646 39.7088 4.73468 39.046C4.76688 38.9518 4.82021 38.864 4.89164 38.7876C4.96307 38.7112 5.05119 38.6478 5.15098 38.6009C5.25076 38.5539 5.36026 38.5245 5.47321 38.5142C5.58616 38.5038 5.70035 38.5129 5.80927 38.5407C5.91819 38.5685 6.0197 38.6147 6.10801 38.6765C6.19631 38.7382 6.26969 38.8145 6.32393 38.9008C6.37818 38.9871 6.41225 39.0818 6.42418 39.1795C6.43612 39.2772 6.42569 39.3759 6.39349 39.4701C6.2133 39.9954 6.12184 40.5403 6.12192 41.0882C6.1159 42.4104 6.65577 43.691 7.64436 44.6995C8.63294 45.708 10.0053 46.3782 11.5144 46.5893C11.7289 46.6195 11.9223 46.7185 12.0563 46.8665C12.1903 47.0145 12.2549 47.2007 12.2374 47.388C12.2198 47.5754 12.1214 47.7502 11.9616 47.8776C11.8018 48.005 11.5924 48.0757 11.3751 48.0757H11.3716Z" fill="#126966"/>
<path d="M44.5565 12.3735C44.3974 12.3734 44.2415 12.3354 44.1058 12.2637C43.9701 12.1919 43.8599 12.0892 43.7873 11.9668C43.7148 11.8444 43.6826 11.7071 43.6944 11.5699C43.7062 11.4328 43.7615 11.3011 43.8542 11.1893C44.3805 10.5534 44.6614 9.79004 44.6568 9.00799C44.6552 8.1027 44.2807 7.22753 43.6006 6.53945C42.9204 5.85138 41.979 5.39543 40.9453 5.2534C39.9116 5.11136 38.8532 5.29254 37.96 5.76443C37.0668 6.23631 36.3972 6.96803 36.0713 7.82832C35.9962 8.01282 35.8405 8.16454 35.6377 8.25097C35.4348 8.33741 35.2009 8.35168 34.986 8.29074C34.7711 8.2298 34.5924 8.09849 34.4881 7.92494C34.3838 7.7514 34.3622 7.54942 34.428 7.36229C34.8818 6.16353 35.8148 5.14391 37.0594 4.48644C38.3039 3.82896 39.7787 3.57668 41.219 3.77487C42.6592 3.97306 43.9706 4.60875 44.9179 5.56783C45.8651 6.52692 46.3861 7.74661 46.3874 9.00799C46.3935 10.1028 46 11.1714 45.2631 12.0615C45.1826 12.1585 45.0765 12.2374 44.9536 12.2917C44.8306 12.346 44.6945 12.374 44.5565 12.3735Z" fill="#126966"/>
<path d="M51.2991 21.0219C51.1569 21.0219 51.0169 20.9916 50.8916 20.9336C50.7662 20.8757 50.6592 20.7919 50.5802 20.6896C50.5012 20.5874 50.4525 20.4699 50.4385 20.3476C50.4245 20.2252 50.4456 20.1018 50.4999 19.9881C50.8023 19.3453 50.9551 18.6571 50.9497 17.9632C50.9595 17.2241 50.7998 16.4908 50.4797 15.8056C50.1595 15.1203 49.6854 14.4968 49.0847 13.9712C48.484 13.4456 47.7687 13.0283 46.9802 12.7435C46.1917 12.4587 45.3457 12.3121 44.4913 12.3121C43.6368 12.3121 42.7908 12.4587 42.0023 12.7435C41.2139 13.0283 40.4986 13.4456 39.8979 13.9712C39.2972 14.4968 38.823 15.1203 38.5029 15.8056C38.1828 16.4908 38.023 17.2241 38.0329 17.9632C38.0329 18.1615 37.9418 18.3518 37.7796 18.4921C37.6174 18.6324 37.3974 18.7112 37.168 18.7112C36.9387 18.7112 36.7187 18.6324 36.5565 18.4921C36.3943 18.3518 36.3032 18.1615 36.3032 17.9632C36.292 17.027 36.4956 16.0982 36.9021 15.2305C37.3086 14.3628 37.91 13.5735 38.6714 12.9081C39.4329 12.2427 40.3393 11.7145 41.3382 11.354C42.3372 10.9935 43.4089 10.8079 44.4913 10.8079C45.5737 10.8079 46.6454 10.9935 47.6443 11.354C48.6433 11.7145 49.5497 12.2427 50.3111 12.9081C51.0726 13.5735 51.6739 14.3628 52.0804 15.2305C52.4869 16.0982 52.6905 17.027 52.6794 17.9632C52.6854 18.8542 52.4882 19.7376 52.0991 20.5626C52.0331 20.699 51.9219 20.8154 51.7795 20.8971C51.6371 20.9789 51.47 21.0223 51.2991 21.0219Z" fill="#126966"/>
<path d="M46.8699 32.3916C46.5889 32.3916 46.3104 32.3788 46.0362 32.3556C45.9232 32.3458 45.8135 32.3168 45.7135 32.2704C45.6134 32.2239 45.5249 32.1608 45.453 32.0847C45.3812 32.0087 45.3273 31.9211 45.2946 31.8271C45.2618 31.733 45.2508 31.6343 45.2621 31.5365C45.2735 31.4388 45.307 31.3439 45.3608 31.2574C45.4145 31.1708 45.4874 31.0943 45.5754 31.0321C45.6633 30.97 45.7645 30.9234 45.8733 30.8951C45.982 30.8667 46.0962 30.8572 46.2092 30.867C46.4254 30.8855 46.6448 30.895 46.8673 30.8955C48.2186 30.8967 49.5363 30.5309 50.6343 29.8498C51.7324 29.1686 52.5555 28.2064 52.9875 27.099C53.4195 25.9916 53.4386 24.7948 53.042 23.6774C52.6455 22.5601 51.8534 21.5787 50.7774 20.8716C50.5939 20.7526 50.4726 20.5754 50.4401 20.379C50.4077 20.1826 50.4668 19.9831 50.6044 19.8244C50.742 19.6657 50.9469 19.5607 51.174 19.5327C51.4011 19.5046 51.6317 19.5557 51.8152 19.6748C53.1785 20.5717 54.1822 21.8159 54.6849 23.2321C55.1877 24.6484 55.1642 26.1653 54.6178 27.5694C54.0714 28.9735 53.0296 30.194 51.6391 31.0591C50.2485 31.9241 48.5793 32.3901 46.8665 32.3916H46.8699Z" fill="#126966"/>
<path d="M49.4984 40.0062C49.3005 40.0064 49.1085 39.9478 48.9544 39.8403C48.8004 39.7327 48.6937 39.5828 48.6521 39.4154C48.6105 39.248 48.6366 39.0734 48.7259 38.9206C48.8152 38.7678 48.9624 38.6462 49.1429 38.576C50.2714 38.1344 51.2289 37.4209 51.9007 36.5209C52.5725 35.6209 52.9303 34.5725 52.931 33.5012C52.9367 32.2551 52.4531 31.0443 51.5594 30.0669C51.4232 29.9107 51.3632 29.7145 51.3923 29.5205C51.4214 29.3265 51.5373 29.15 51.715 29.029C51.8927 28.9079 52.1182 28.8519 52.3431 28.873C52.568 28.8941 52.7744 28.9905 52.9181 29.1416C53.683 29.9842 54.2162 30.9663 54.4773 32.0136C54.7385 33.0608 54.7207 34.1457 54.4254 35.1862C54.1301 36.2266 53.5649 37.1952 52.7727 38.0188C51.9805 38.8424 50.9821 39.4992 49.853 39.9397C49.7416 39.9833 49.6207 40.006 49.4984 40.0062Z" fill="#126966"/>
<path d="M10.5053 12.3735C10.3678 12.3735 10.2324 12.3453 10.1101 12.291C9.98782 12.2368 9.88225 12.1581 9.80213 12.0615C9.06518 11.1714 8.67173 10.1028 8.6778 9.00799C8.67908 7.74661 9.2001 6.52692 10.1473 5.56783C11.0946 4.60875 12.406 3.97306 13.8462 3.77487C15.2865 3.57668 16.7613 3.82896 18.0058 4.48644C19.2504 5.14391 20.1833 6.16353 20.6372 7.36229C20.6754 7.45624 20.6916 7.55584 20.6847 7.65526C20.6778 7.75468 20.6481 7.85191 20.5972 7.94125C20.5463 8.0306 20.4753 8.11025 20.3884 8.17555C20.3014 8.24084 20.2002 8.29046 20.0908 8.32149C19.9814 8.35252 19.8659 8.36434 19.7512 8.35626C19.6364 8.34817 19.5246 8.32035 19.4225 8.27441C19.3203 8.22848 19.2298 8.16536 19.1562 8.08875C19.0826 8.01215 19.0274 7.92361 18.9939 7.82832C18.669 6.96691 17.9996 6.23395 17.1059 5.76115C16.2122 5.28834 15.1529 5.10668 14.1183 5.24881C13.0837 5.39094 12.1416 5.84755 11.4612 6.53658C10.7809 7.22561 10.407 8.1019 10.4067 9.00799C10.4021 9.79004 10.6829 10.5534 11.2093 11.1893C11.302 11.3011 11.3573 11.4328 11.3691 11.5699C11.3809 11.7071 11.3487 11.8444 11.2761 11.9668C11.2035 12.0892 11.0933 12.1919 10.9576 12.2637C10.822 12.3354 10.666 12.3734 10.507 12.3735H10.5053Z" fill="#126966"/>
<path d="M3.76162 21.0219C3.59033 21.022 3.42286 20.9782 3.28043 20.8959C3.13801 20.8136 3.02705 20.6965 2.96162 20.5596C2.57288 19.7355 2.37569 18.8532 2.38129 17.9632C2.37017 17.027 2.57374 16.0982 2.98025 15.2305C3.38675 14.3628 3.98811 13.5735 4.74955 12.9081C5.51099 12.2427 6.4174 11.7145 7.41635 11.354C8.41531 10.9935 9.48698 10.8079 10.5694 10.8079C11.6518 10.8079 12.7235 10.9935 13.7224 11.354C14.7214 11.7145 15.6278 12.2427 16.3893 12.9081C17.1507 13.5735 17.7521 14.3628 18.1586 15.2305C18.5651 16.0982 18.7686 17.027 18.7575 17.9632C18.7575 18.1615 18.6664 18.3518 18.5042 18.4921C18.342 18.6324 18.122 18.7112 17.8926 18.7112C17.6633 18.7112 17.4433 18.6324 17.2811 18.4921C17.1189 18.3518 17.0278 18.1615 17.0278 17.9632C17.0377 17.2241 16.8779 16.4908 16.5578 15.8056C16.2377 15.1203 15.7635 14.4968 15.1628 13.9712C14.5621 13.4456 13.8468 13.0283 13.0583 12.7435C12.2699 12.4587 11.4239 12.3121 10.5694 12.3121C9.71493 12.3121 8.86895 12.4587 8.08047 12.7435C7.29199 13.0283 6.57668 13.4456 5.97598 13.9712C5.37529 14.4968 4.90114 15.1203 4.58101 15.8056C4.26088 16.4908 4.10113 17.2241 4.11102 17.9632C4.10512 18.6582 4.25796 19.3473 4.56075 19.9911C4.64726 20.1741 4.64651 20.3792 4.55868 20.5617C4.47084 20.7442 4.30306 20.8892 4.09199 20.9651C3.98716 21.0023 3.87496 21.0216 3.76162 21.0219Z" fill="#126966"/>
<path d="M8.191 32.3916C6.47634 32.3934 4.80436 31.9292 3.41126 31.0646C2.01817 30.1999 0.974395 28.9785 0.427414 27.573C-0.119567 26.1674 -0.142104 24.6487 0.362988 23.2315C0.86808 21.8142 1.87526 20.57 3.24224 19.6748C3.42574 19.5557 3.6564 19.5046 3.88347 19.5327C4.11054 19.5607 4.31543 19.6657 4.45305 19.8244C4.59068 19.9831 4.64977 20.1826 4.61733 20.379C4.5849 20.5754 4.46358 20.7526 4.28008 20.8716C3.20729 21.5801 2.41816 22.5616 2.02361 23.678C1.62906 24.7945 1.64893 25.9898 2.08042 27.096C2.51192 28.2021 3.33334 29.1635 4.42923 29.8451C5.52513 30.5266 6.84038 30.8939 8.19014 30.8955C8.41269 30.8955 8.63208 30.886 8.8483 30.867C8.9613 30.8572 9.07544 30.8667 9.1842 30.8951C9.29295 30.9234 9.39418 30.97 9.48212 31.0321C9.57006 31.0943 9.64298 31.1709 9.69672 31.2574C9.75046 31.3439 9.78397 31.4388 9.79532 31.5365C9.80668 31.6343 9.79567 31.733 9.76292 31.8271C9.73016 31.9211 9.67631 32.0087 9.60443 32.0847C9.53255 32.1608 9.44406 32.2239 9.344 32.2704C9.24394 32.3168 9.13428 32.3458 9.02127 32.3556C8.75057 32.3788 8.47208 32.3916 8.191 32.3916Z" fill="#126966"/>
<path d="M5.56347 40.0067C5.44116 40.0064 5.3203 39.9837 5.20887 39.9401C4.07949 39.5 3.0807 38.8433 2.28815 38.0199C1.49561 37.1965 0.930085 36.2278 0.634415 35.1874C0.338745 34.1469 0.320679 33.0619 0.581586 32.0146C0.842493 30.9672 1.37553 29.9849 2.14033 29.1421C2.20962 29.0625 2.29656 28.9958 2.39606 28.9457C2.49556 28.8956 2.60561 28.8633 2.71977 28.8505C2.83393 28.8376 2.9499 28.8447 3.06087 28.8711C3.17185 28.8976 3.2756 28.943 3.36604 29.0046C3.45649 29.0662 3.5318 29.1428 3.58758 29.2298C3.64335 29.3169 3.67846 29.4128 3.69085 29.5118C3.70323 29.6108 3.69265 29.7109 3.65971 29.8063C3.62677 29.9017 3.57215 29.9905 3.49904 30.0674C2.6053 31.0447 2.12169 32.2556 2.12736 33.5017C2.12814 34.573 2.48585 35.6214 3.15768 36.5214C3.8295 37.4214 4.78697 38.1349 5.91547 38.5764C6.09598 38.6466 6.24318 38.7683 6.3325 38.9211C6.42182 39.0738 6.44786 39.2485 6.40626 39.4158C6.36467 39.5832 6.25796 39.7332 6.10394 39.8407C5.94993 39.9482 5.75794 40.0068 5.56001 40.0067H5.56347Z" fill="#126966"/>
<path d="M35.9891 52.373C33.5171 52.3706 31.147 51.5201 29.399 50.0082C27.651 48.4963 26.6678 46.4464 26.665 44.3083V4.75006C26.6264 4.08082 26.7519 3.41208 27.0332 2.78773C27.3144 2.16338 27.7451 1.59751 28.297 1.12727C28.9055 0.656641 29.6352 0.318678 30.4253 0.141575C31.2155 -0.0355278 32.0432 -0.0466355 32.8393 0.109179C36.6688 0.893741 40.2612 2.37454 43.3777 4.45309C43.5566 4.57758 43.671 4.75844 43.6957 4.9559C43.7205 5.15335 43.6535 5.35121 43.5096 5.50596C43.3656 5.66071 43.1565 5.75966 42.9282 5.78106C42.6999 5.80245 42.4712 5.74453 42.2923 5.62004C39.3857 3.69902 36.049 2.32165 32.4942 1.57535C31.9693 1.46727 31.4221 1.46912 30.8982 1.58076C30.3743 1.69239 29.8887 1.91057 29.4819 2.21717C29.1057 2.54999 28.8146 2.94743 28.6273 3.38376C28.44 3.82008 28.3608 4.28557 28.3948 4.75006V44.3083C28.3954 45.8093 28.9903 47.2649 30.0805 48.4328C31.1706 49.6007 32.6903 50.4105 34.3865 50.7276C36.0828 51.0446 37.8535 50.8497 39.4039 50.1752C40.9543 49.5008 42.1909 48.3875 42.908 47.0207C43.0029 46.8399 43.1769 46.6992 43.3917 46.6294C43.6065 46.5596 43.8446 46.5665 44.0536 46.6485C44.2625 46.7306 44.4253 46.881 44.5059 47.0668C44.5866 47.2527 44.5787 47.4586 44.4838 47.6393C43.741 49.0493 42.5455 50.245 41.0395 51.0842C39.5335 51.9234 37.7806 52.3707 35.9891 52.373Z" fill="#126966"/>
<path d="M39.2189 38.8485H39.1471C38.9186 38.8321 38.7069 38.7379 38.5587 38.5865C38.4104 38.4351 38.3378 38.239 38.3567 38.0413C38.4816 37.2622 38.4221 36.4691 38.1819 35.7105C37.9416 34.9518 37.5256 34.2432 36.959 33.6279C35.5919 32.4037 33.7681 31.6373 31.8105 31.4645C31.5817 31.4502 31.3688 31.3579 31.2187 31.2079C31.0686 31.0578 30.9935 30.8624 31.0101 30.6645C31.0266 30.4666 31.1333 30.2825 31.3068 30.1526C31.4802 30.0228 31.7062 29.9579 31.935 29.9722C34.3533 30.1742 36.6051 31.1272 38.2736 32.6547C38.9913 33.4181 39.5217 34.3 39.8323 35.2466C40.1429 36.1932 40.2273 37.1846 40.0803 38.1603C40.0629 38.3476 39.9647 38.5224 39.8051 38.6499C39.6455 38.7774 39.4362 38.8483 39.2189 38.8485Z" fill="#126966"/>
<path d="M33.6998 45.3258H33.6591C33.5457 45.3213 33.4343 45.2975 33.3315 45.2558C33.2287 45.2141 33.1364 45.1552 33.0598 45.0826C32.9833 45.0101 32.924 44.9251 32.8854 44.8327C32.8468 44.7403 32.8297 44.6423 32.8349 44.5441C32.9759 41.9095 34.9625 36.9948 41.4516 37.1931C41.5651 37.1967 41.6768 37.2197 41.7801 37.2606C41.8834 37.3016 41.9764 37.3597 42.0537 37.4317C42.1311 37.5038 42.1912 37.5883 42.2308 37.6804C42.2704 37.7726 42.2886 37.8706 42.2844 37.9688C42.2802 38.067 42.2537 38.1636 42.2063 38.253C42.159 38.3423 42.0918 38.4227 42.0085 38.4896C41.9252 38.5565 41.8275 38.6086 41.721 38.6428C41.6144 38.6771 41.5011 38.6928 41.3876 38.6892C34.9824 38.4894 34.5767 44.3631 34.5629 44.6137C34.5522 44.8055 34.4567 44.9865 34.296 45.1191C34.1353 45.2516 33.9218 45.3257 33.6998 45.3258Z" fill="#126966"/>
<path d="M39.3794 24.4636C38.1819 24.4645 36.999 24.2371 35.9147 23.7975C34.8305 23.3579 33.8717 22.7169 33.1065 21.9202C33.0306 21.8452 32.9728 21.7577 32.9365 21.663C32.9002 21.5684 32.8862 21.4684 32.8953 21.3689C32.9043 21.2695 32.9363 21.1726 32.9893 21.084C33.0422 20.9954 33.1152 20.9169 33.2038 20.853C33.2924 20.7892 33.3948 20.7413 33.5051 20.7122C33.6154 20.6831 33.7314 20.6734 33.8461 20.6836C33.9608 20.6938 34.072 20.7238 34.1731 20.7717C34.2742 20.8197 34.3633 20.8846 34.4349 20.9627C35.2809 21.8419 36.4196 22.4742 37.6959 22.7735C38.9722 23.0728 40.3242 23.0247 41.5678 22.6356C42.8113 22.2465 43.886 21.5353 44.6455 20.599C45.405 19.6626 45.8124 18.5466 45.8122 17.4028C45.8122 17.2599 45.8062 17.1178 45.7941 16.9772C45.7835 16.8783 45.7957 16.7786 45.8301 16.6838C45.8645 16.5891 45.9204 16.5012 45.9945 16.4253C46.0686 16.3494 46.1594 16.2871 46.2616 16.2419C46.3638 16.1967 46.4754 16.1695 46.5899 16.162C46.7044 16.1545 46.8195 16.1668 46.9284 16.1982C47.0374 16.2296 47.138 16.2794 47.2244 16.3448C47.3109 16.4101 47.3814 16.4897 47.4319 16.5789C47.4824 16.6681 47.5119 16.7651 47.5186 16.8642C47.5342 17.0422 47.542 17.2218 47.542 17.4028C47.5399 19.2748 46.6793 21.0696 45.149 22.3933C43.6187 23.7171 41.5437 24.4616 39.3794 24.4636Z" fill="#126966"/>
<path d="M44.4919 28.8097H44.4746C40.2661 28.7387 38.289 25.5385 37.8315 23.8562C37.7817 23.6641 37.8214 23.4628 37.9421 23.2958C38.0627 23.1289 38.2546 23.0099 38.4761 22.9645C38.6975 22.9191 38.9307 22.9511 39.1252 23.0534C39.3196 23.1558 39.4595 23.3203 39.5146 23.5113C39.5578 23.6609 40.6017 27.2478 44.5083 27.3136C44.7377 27.3155 44.9568 27.3962 45.1174 27.5378C45.2781 27.6794 45.3671 27.8704 45.3649 28.0688C45.3628 28.2672 45.2696 28.4567 45.1058 28.5957C44.9421 28.7346 44.7212 28.8116 44.4919 28.8097Z" fill="#126966"/>
<path d="M19.0714 52.3734C17.2804 52.3707 15.528 51.9232 14.0226 51.084C12.5171 50.2448 11.322 49.0494 10.5793 47.6397C10.4845 47.459 10.4765 47.2531 10.5572 47.0673C10.6379 46.8815 10.8006 46.731 11.0096 46.6489C11.2185 46.5669 11.4566 46.56 11.6715 46.6298C11.8863 46.6996 12.0603 46.8404 12.1551 47.0211C12.8731 48.3866 14.1098 49.4985 15.6596 50.172C17.2094 50.8454 18.979 51.0399 20.6743 50.723C22.3696 50.4061 23.8884 49.597 24.9784 48.4301C26.0683 47.2632 26.6638 45.8088 26.6658 44.3087V4.75048C26.6997 4.28598 26.6205 3.8205 26.4332 3.38418C26.246 2.94785 25.9548 2.55041 25.5787 2.21759C25.1721 1.91095 24.6866 1.69273 24.1628 1.58109C23.639 1.46945 23.092 1.46763 22.5672 1.57577C19.0119 2.3187 15.6746 3.69444 12.7683 5.61522C12.5889 5.72653 12.3671 5.77428 12.1483 5.74869C11.9295 5.72309 11.7303 5.62609 11.5915 5.47756C11.4527 5.32903 11.3849 5.14022 11.4019 4.94983C11.4189 4.75943 11.5194 4.58186 11.6829 4.45351C14.7996 2.37484 18.3924 0.89404 22.2221 0.109598C23.0181 -0.0461526 23.8456 -0.0350119 24.6356 0.142091C25.4256 0.319193 26.1552 0.657123 26.7635 1.12769C27.3154 1.59793 27.7461 2.1638 28.0274 2.78815C28.3087 3.4125 28.4341 4.08124 28.3955 4.75048V44.3087C28.3928 46.4468 27.4095 48.4968 25.6615 50.0087C23.9135 51.5206 21.5435 52.371 19.0714 52.3734Z" fill="#126966"/>
<path d="M12.8543 40.7454C12.6368 40.7461 12.427 40.6758 12.2667 40.5487C12.1065 40.4216 12.0074 40.2469 11.9894 40.0595C11.8409 39.0825 11.9245 38.0897 12.2352 37.1417C12.5458 36.1937 13.077 35.3106 13.7961 34.5464C15.4642 33.0188 17.7157 32.0658 20.1338 31.8639C20.362 31.8522 20.5865 31.9181 20.7593 32.0475C20.9322 32.1769 21.0398 32.3595 21.0592 32.5566C21.0675 32.6545 21.0533 32.753 21.0176 32.8462C20.9818 32.9395 20.9252 33.0258 20.8509 33.1001C20.7766 33.1744 20.6861 33.2354 20.5846 33.2794C20.4831 33.3235 20.3725 33.3499 20.2592 33.357C18.2988 33.534 16.4728 34.3019 15.1012 35.5263C14.5377 36.1419 14.1241 36.8499 13.8856 37.6076C13.647 38.3652 13.5883 39.1568 13.7131 39.9345C13.732 40.1322 13.6593 40.3283 13.5111 40.4797C13.3628 40.6311 13.1511 40.7253 12.9226 40.7417L12.8543 40.7454Z" fill="#126966"/>
<path d="M18.3722 47.222C18.1499 47.2222 17.936 47.1483 17.7749 47.0157C17.6139 46.8831 17.5181 46.7019 17.5074 46.5098C17.4927 46.2592 17.075 40.3691 10.6827 40.5838C10.4534 40.5911 10.23 40.5194 10.0618 40.3843C9.89362 40.2492 9.79436 40.0618 9.78587 39.8634C9.77738 39.665 9.86036 39.4718 10.0166 39.3264C10.1727 39.1809 10.3894 39.095 10.6187 39.0877C17.0992 38.8835 19.0944 43.8041 19.2354 46.4388C19.2406 46.5369 19.2234 46.635 19.1849 46.7274C19.1463 46.8198 19.087 46.9047 19.0105 46.9773C18.9339 47.0499 18.8416 47.1087 18.7388 47.1504C18.636 47.1922 18.5246 47.216 18.4112 47.2205L18.3722 47.222Z" fill="#126966"/>
<path d="M27.5309 45.0563H27.5257C27.412 45.0557 27.2996 45.0358 27.1949 44.9976C27.0902 44.9594 26.9952 44.9038 26.9153 44.8338C26.8355 44.7638 26.7724 44.681 26.7296 44.5899C26.6868 44.4988 26.6652 44.4013 26.666 44.303C26.7229 42.836 26.178 41.3989 25.1279 40.2458C24.0777 39.0927 22.5899 38.298 20.9276 38.0023C20.7024 37.9647 20.5036 37.8512 20.3751 37.6869C20.2466 37.5225 20.1988 37.3207 20.2422 37.1259C20.2857 36.9311 20.4169 36.7592 20.6069 36.648C20.7969 36.5368 21.0302 36.4955 21.2554 36.5331C21.3272 36.5451 28.4433 37.8048 28.3957 44.3128C28.3944 44.5104 28.3027 44.6995 28.1406 44.8388C27.9786 44.9781 27.7594 45.0563 27.5309 45.0563Z" fill="#126966"/>
<path d="M27.5305 15.693C27.4512 15.6931 27.3723 15.6835 27.2961 15.6646C27.1868 15.638 27.0846 15.5929 26.9954 15.5321C26.9062 15.4713 26.8318 15.3959 26.7763 15.3101C26.7208 15.2244 26.6853 15.1301 26.672 15.0325C26.6587 14.935 26.6677 14.8361 26.6985 14.7415C27.1534 13.3442 28.8883 10.7769 32.1636 11.0596C32.3918 11.0795 32.6016 11.1769 32.7468 11.3305C32.8919 11.4842 32.9606 11.6814 32.9376 11.8788C32.9147 12.0762 32.802 12.2576 32.6244 12.3831C32.4468 12.5087 32.2189 12.5681 31.9906 12.5483C29.3234 12.3238 28.3712 15.1193 28.3582 15.1477C28.3073 15.304 28.1991 15.4417 28.0498 15.5401C27.9005 15.6384 27.7182 15.6921 27.5305 15.693Z" fill="#126966"/>
<path d="M27.5306 19.4058C27.3427 19.4057 27.1599 19.3527 27.0099 19.2547C26.8599 19.1567 26.751 19.0191 26.6995 18.8628C26.6605 18.7468 25.7092 16.0254 23.067 16.2611C22.8387 16.2809 22.6106 16.2215 22.4329 16.0958C22.2552 15.9702 22.1425 15.7887 22.1196 15.5912C22.0966 15.3937 22.1653 15.1964 22.3106 15.0427C22.4558 14.889 22.6657 14.7915 22.8941 14.7717C26.1805 14.4897 27.9042 17.057 28.3591 18.4543C28.39 18.5489 28.399 18.6478 28.3856 18.7453C28.3723 18.8429 28.3369 18.9372 28.2814 19.0229C28.2259 19.1087 28.1514 19.1841 28.0622 19.2449C27.973 19.3057 27.8708 19.3508 27.7615 19.3774C27.6864 19.3961 27.6087 19.4056 27.5306 19.4058Z" fill="#126966"/>
<path d="M17.7904 25.3574C15.6263 25.3554 13.5515 24.6111 12.0211 23.2877C10.4907 21.9643 9.6297 20.1698 9.62695 18.2981C9.62695 18.1163 9.63474 17.936 9.6503 17.7587C9.65702 17.6596 9.68649 17.5626 9.737 17.4734C9.78751 17.3842 9.85804 17.3046 9.94449 17.2393C10.0309 17.1739 10.1316 17.1241 10.2405 17.0927C10.3494 17.0614 10.4645 17.0491 10.579 17.0566C10.6935 17.0641 10.8051 17.0912 10.9073 17.1364C11.0096 17.1816 11.1004 17.244 11.1745 17.3198C11.2485 17.3957 11.3044 17.4836 11.3388 17.5783C11.3732 17.6731 11.3855 17.7728 11.3748 17.8717C11.3627 18.0123 11.3567 18.1544 11.3567 18.2981C11.3569 19.4416 11.7645 20.5574 12.5241 21.4934C13.2836 22.4294 14.3581 23.1403 15.6014 23.5293C16.8447 23.9183 18.1964 23.9664 19.4725 23.6673C20.7486 23.3681 21.8871 22.7361 22.7331 21.8573C22.8058 21.7818 22.895 21.7194 22.9955 21.6737C23.0961 21.628 23.2061 21.5999 23.3192 21.591C23.4323 21.5821 23.5463 21.5925 23.6548 21.6217C23.7633 21.6509 23.864 21.6983 23.9513 21.7612C24.0386 21.824 24.1107 21.9011 24.1635 21.9881C24.2163 22.0751 24.2488 22.1702 24.2591 22.2681C24.2695 22.3659 24.2574 22.4645 24.2236 22.5583C24.1899 22.6521 24.1351 22.7393 24.0624 22.8148C23.2973 23.6112 22.3385 24.252 21.2545 24.6915C20.1704 25.1309 18.9876 25.3583 17.7904 25.3574Z" fill="#126966"/>
<path d="M12.6739 29.7074C12.4445 29.7093 12.2237 29.6323 12.0599 29.4934C11.8962 29.3544 11.803 29.1649 11.8008 28.9665C11.7986 28.7681 11.8877 28.5771 12.0483 28.4355C12.209 28.2939 12.4281 28.2132 12.6575 28.2114C16.5632 28.1455 17.608 24.5616 17.6512 24.409C17.7063 24.218 17.8462 24.0535 18.0406 23.9511C18.235 23.8488 18.4682 23.8168 18.6897 23.8622C18.9112 23.9076 19.103 24.0266 19.2237 24.1935C19.3443 24.3605 19.3841 24.5618 19.3342 24.7539C18.881 26.4325 16.8988 29.6326 12.6912 29.7074H12.6739Z" fill="#126966"/>
</svg>
