<svg width="55" height="56" viewBox="0 0 55 56" fill="none" xmlns="http://www.w3.org/2000/svg">
<path d="M51.2671 17.76L46.7268 18.6021L47.8403 21.1632L42.8146 21.946" stroke="#1E232F" stroke-width="1.5" stroke-miterlimit="10" stroke-linecap="round" stroke-linejoin="round"/>
<path d="M53.9388 26.7214L49.3338 26.1863L49.3623 28.9183L44.3243 28.1856" stroke="#1E232F" stroke-width="1.5" stroke-miterlimit="10" stroke-linecap="round" stroke-linejoin="round"/>
<path d="M51.2572 37.7442L48.0621 34.841L46.1285 37.0167L42.7384 33.7241" stroke="#1E232F" stroke-width="1.5" stroke-miterlimit="10" stroke-linecap="round" stroke-linejoin="round"/>
<path d="M3.42004 17.76L7.9603 18.6021L6.84681 21.1632L11.8725 21.946" stroke="#1E232F" stroke-width="1.5" stroke-miterlimit="10" stroke-linecap="round" stroke-linejoin="round"/>
<path d="M0.750122 26.7214L5.35507 26.1863L5.32665 28.9183L10.3646 28.1856" stroke="#1E232F" stroke-width="1.5" stroke-miterlimit="10" stroke-linecap="round" stroke-linejoin="round"/>
<path d="M3.43176 37.7442L6.62683 34.841L8.56049 37.0167L11.9506 33.7241" stroke="#1E232F" stroke-width="1.5" stroke-miterlimit="10" stroke-linecap="round" stroke-linejoin="round"/>
<path d="M31.6428 54.7539V40.8309C31.6428 39.8822 32.3609 39.0655 33.4104 38.6327C35.6459 37.7108 37.0688 35.7025 36.578 33.4657C36.1517 31.5224 34.2283 29.9624 31.8168 29.599C30.5462 29.4075 29.3333 29.5411 28.2771 29.911C27.6745 30.1221 27.014 30.1221 26.4115 29.911C25.3554 29.5411 24.1427 29.4075 22.8724 29.5989C20.4608 29.9621 18.5372 31.5221 18.1107 33.4655C17.6198 35.7023 19.0428 37.7107 21.2783 38.6327C22.3278 39.0655 23.0459 39.8822 23.0459 40.8309V54.7539" stroke="#126966" stroke-width="1.5" stroke-miterlimit="10" stroke-linecap="round" stroke-linejoin="round"/>
<path d="M31.6428 0.75V14.6731C31.6428 15.6218 32.3609 16.4384 33.4104 16.8712C35.6459 17.7932 37.0688 19.8014 36.578 22.0383C36.1517 23.9816 34.2283 25.5416 31.8168 25.905C30.5462 26.0964 29.3333 25.9629 28.2771 25.5929C27.6745 25.3818 27.014 25.3818 26.4115 25.5929C25.3554 25.9628 24.1427 26.0964 22.8724 25.9051C20.4608 25.5418 18.5372 23.9818 18.1107 22.0385C17.6198 19.8016 19.0428 17.7932 21.2783 16.8713C22.3278 16.4384 23.0459 15.6217 23.0459 14.6731V0.75" stroke="#126966" stroke-width="1.5" stroke-miterlimit="10" stroke-linecap="round" stroke-linejoin="round"/>
</svg>
