<svg width="74" height="74" viewBox="0 0 74 74" fill="none" xmlns="http://www.w3.org/2000/svg">
<mask id="path-1-inside-1_594_1019" fill="white">
<path d="M63.2747 19.4342C66.2497 19.4342 68.6697 17.0141 68.6697 14.0403C68.6697 11.0664 66.2497 8.64635 63.2747 8.64635C60.3008 8.64635 57.8808 11.0664 57.8808 14.0403C57.8808 14.9387 58.1224 15.7735 58.5132 16.5193L53.7876 20.4563C50.305 16.9621 45.4892 14.7953 40.1774 14.7953C39.8398 14.7953 39.5114 14.8288 39.1784 14.8462L38.6327 9.98182C39.9843 9.37017 40.9313 8.0162 40.9313 6.43907C40.9313 4.29307 39.1842 2.54598 37.0382 2.54598C34.8922 2.54598 33.1451 4.29307 33.1451 6.43907C33.1451 8.35498 34.5395 9.94367 36.3653 10.2639L36.9075 15.0948C34.3823 15.5307 32.027 16.4557 29.9388 17.7773L24.3934 10.0408C25.2583 9.08342 25.8006 7.82773 25.8006 6.43907C25.8006 3.4652 23.3806 1.04517 20.4067 1.04517C17.4328 1.04517 15.0128 3.4652 15.0128 6.43907C15.0128 9.4141 17.4328 11.8341 20.4067 11.8341C21.1675 11.8341 21.889 11.6723 22.5469 11.3867L28.0761 19.1012C24.383 22.1016 21.8381 26.4445 21.1548 31.3771L14.726 31.1886C14.4717 29.9792 13.8392 28.8946 12.8656 28.1084C11.9083 27.3337 10.7046 26.9093 9.47667 26.9093C7.83826 26.9093 6.30854 27.6389 5.27948 28.9119C4.37414 30.0335 3.95904 31.4384 4.11051 32.8721C4.26198 34.3047 4.96267 35.5928 6.08307 36.4981C7.04045 37.2728 8.24411 37.6971 9.47204 37.6971C11.1093 37.6971 12.639 36.9675 13.6692 35.6945C14.1999 35.0366 14.5399 34.277 14.7179 33.4757L20.9686 33.6584C20.9663 33.7809 20.9501 33.9 20.9501 34.0226C20.9501 39.1609 22.9874 43.8241 26.2828 47.2767L23.7795 49.9661C23.2673 49.7175 22.6984 49.5649 22.0914 49.5649C19.9454 49.5649 18.1983 51.312 18.1983 53.458C18.1983 55.604 19.9454 57.3511 22.0914 57.3511C24.2374 57.3511 25.9844 55.604 25.9844 53.458C25.9844 52.7515 25.7809 52.0971 25.4503 51.5247L27.9443 48.8457C31.2708 51.5953 35.5328 53.2499 40.1751 53.2499C40.7821 53.2499 41.3811 53.214 41.9731 53.1585L43.4207 62.5345C42.1939 63.004 41.1579 63.9047 40.5393 65.1245C39.1958 67.7781 40.2618 71.0307 42.9154 72.3754C43.667 72.7558 44.5087 72.957 45.347 72.957C47.3936 72.957 49.2389 71.8239 50.1639 69.9993C50.8149 68.7135 50.9259 67.2521 50.4761 65.8819C50.0275 64.5129 49.0724 63.4006 47.7867 62.7496C47.1311 62.4178 46.4085 62.2328 45.6777 62.1877L44.2301 52.8105C50.9398 51.3629 56.3522 46.406 58.4508 39.9599L62.1462 40.9219C62.2387 42.987 63.9349 44.6439 66.0219 44.6439C68.1691 44.6439 69.9162 42.8968 69.9162 40.7508C69.9162 38.6048 68.1691 36.8577 66.0219 36.8577C64.6252 36.8577 63.4076 37.6035 62.7208 38.7112L59.0301 37.7503C59.2683 36.5432 59.4001 35.2979 59.4001 34.0226C59.4001 29.5537 57.8542 25.4467 55.2873 22.1779L59.9713 18.2756C60.8893 18.9902 62.0259 19.4342 63.2747 19.4342ZM35.4287 6.43792C35.4287 5.55107 36.1502 4.82957 37.037 4.82957C37.9239 4.82957 38.6454 5.55107 38.6454 6.43792C38.6454 7.32476 37.925 8.04626 37.0382 8.04626C36.1502 8.04626 35.4287 7.32476 35.4287 6.43792ZM17.2975 6.43792C17.2975 4.7232 18.692 3.32876 20.4067 3.32876C22.1214 3.32876 23.5159 4.7232 23.5159 6.43792C23.5159 8.15264 22.1214 9.54823 20.4067 9.54823C18.692 9.54823 17.2975 8.15264 17.2975 6.43792ZM11.8932 34.2561C10.8491 35.5477 8.81414 35.765 7.52029 34.7198C6.87395 34.1972 6.47042 33.4549 6.38254 32.6293C6.29582 31.8026 6.53401 30.9932 7.05664 30.3469C7.64979 29.6126 8.53201 29.1918 9.47782 29.1918C10.1947 29.1918 10.8711 29.43 11.4296 29.882C12.0759 30.4047 12.4794 31.147 12.5673 31.9725C12.654 32.8004 12.4147 33.611 11.8932 34.2561ZM48.3082 66.5918C48.5672 67.3815 48.5036 68.2245 48.1278 68.9645C47.5959 70.0178 46.531 70.6699 45.3505 70.6699C44.8614 70.6699 44.3896 70.5578 43.9503 70.3346C42.4205 69.5599 41.8066 67.6856 42.5813 66.1571C43.1131 65.1037 44.178 64.4516 45.3586 64.4516C45.8488 64.4516 46.3194 64.5638 46.7588 64.7869C47.5 65.1627 48.0503 65.8033 48.3082 66.5918ZM66.0254 39.1413C66.9134 39.1413 67.6349 39.8628 67.6349 40.7496C67.6349 41.6365 66.9134 42.358 66.0254 42.358C65.1385 42.358 64.417 41.6365 64.417 40.7496C64.417 39.8628 65.1385 39.1413 66.0254 39.1413ZM22.0925 55.0663C21.2057 55.0663 20.4842 54.3448 20.4842 53.458C20.4842 52.5711 21.2057 51.8496 22.0925 51.8496C22.9794 51.8496 23.7009 52.5711 23.7009 53.458C23.7009 54.3448 22.9805 55.0663 22.0925 55.0663ZM40.1774 50.964C30.8349 50.964 23.236 43.3639 23.236 34.0214C23.236 24.6789 30.8361 17.08 40.1774 17.08C49.5188 17.08 57.1188 24.6789 57.1188 34.0214C57.1188 43.3639 49.5188 50.964 40.1774 50.964ZM63.2747 10.9299C64.9894 10.9299 66.385 12.3244 66.385 14.0391C66.385 15.7538 64.9894 17.1483 63.2747 17.1483C61.5599 17.1483 60.1655 15.7538 60.1655 14.0391C60.1655 12.3244 61.5599 10.9299 63.2747 10.9299Z"/>
</mask>
<path d="M63.2747 19.4342C66.2497 19.4342 68.6697 17.0141 68.6697 14.0403C68.6697 11.0664 66.2497 8.64635 63.2747 8.64635C60.3008 8.64635 57.8808 11.0664 57.8808 14.0403C57.8808 14.9387 58.1224 15.7735 58.5132 16.5193L53.7876 20.4563C50.305 16.9621 45.4892 14.7953 40.1774 14.7953C39.8398 14.7953 39.5114 14.8288 39.1784 14.8462L38.6327 9.98182C39.9843 9.37017 40.9313 8.0162 40.9313 6.43907C40.9313 4.29307 39.1842 2.54598 37.0382 2.54598C34.8922 2.54598 33.1451 4.29307 33.1451 6.43907C33.1451 8.35498 34.5395 9.94367 36.3653 10.2639L36.9075 15.0948C34.3823 15.5307 32.027 16.4557 29.9388 17.7773L24.3934 10.0408C25.2583 9.08342 25.8006 7.82773 25.8006 6.43907C25.8006 3.4652 23.3806 1.04517 20.4067 1.04517C17.4328 1.04517 15.0128 3.4652 15.0128 6.43907C15.0128 9.4141 17.4328 11.8341 20.4067 11.8341C21.1675 11.8341 21.889 11.6723 22.5469 11.3867L28.0761 19.1012C24.383 22.1016 21.8381 26.4445 21.1548 31.3771L14.726 31.1886C14.4717 29.9792 13.8392 28.8946 12.8656 28.1084C11.9083 27.3337 10.7046 26.9093 9.47667 26.9093C7.83826 26.9093 6.30854 27.6389 5.27948 28.9119C4.37414 30.0335 3.95904 31.4384 4.11051 32.8721C4.26198 34.3047 4.96267 35.5928 6.08307 36.4981C7.04045 37.2728 8.24411 37.6971 9.47204 37.6971C11.1093 37.6971 12.639 36.9675 13.6692 35.6945C14.1999 35.0366 14.5399 34.277 14.7179 33.4757L20.9686 33.6584C20.9663 33.7809 20.9501 33.9 20.9501 34.0226C20.9501 39.1609 22.9874 43.8241 26.2828 47.2767L23.7795 49.9661C23.2673 49.7175 22.6984 49.5649 22.0914 49.5649C19.9454 49.5649 18.1983 51.312 18.1983 53.458C18.1983 55.604 19.9454 57.3511 22.0914 57.3511C24.2374 57.3511 25.9844 55.604 25.9844 53.458C25.9844 52.7515 25.7809 52.0971 25.4503 51.5247L27.9443 48.8457C31.2708 51.5953 35.5328 53.2499 40.1751 53.2499C40.7821 53.2499 41.3811 53.214 41.9731 53.1585L43.4207 62.5345C42.1939 63.004 41.1579 63.9047 40.5393 65.1245C39.1958 67.7781 40.2618 71.0307 42.9154 72.3754C43.667 72.7558 44.5087 72.957 45.347 72.957C47.3936 72.957 49.2389 71.8239 50.1639 69.9993C50.8149 68.7135 50.9259 67.2521 50.4761 65.8819C50.0275 64.5129 49.0724 63.4006 47.7867 62.7496C47.1311 62.4178 46.4085 62.2328 45.6777 62.1877L44.2301 52.8105C50.9398 51.3629 56.3522 46.406 58.4508 39.9599L62.1462 40.9219C62.2387 42.987 63.9349 44.6439 66.0219 44.6439C68.1691 44.6439 69.9162 42.8968 69.9162 40.7508C69.9162 38.6048 68.1691 36.8577 66.0219 36.8577C64.6252 36.8577 63.4076 37.6035 62.7208 38.7112L59.0301 37.7503C59.2683 36.5432 59.4001 35.2979 59.4001 34.0226C59.4001 29.5537 57.8542 25.4467 55.2873 22.1779L59.9713 18.2756C60.8893 18.9902 62.0259 19.4342 63.2747 19.4342ZM35.4287 6.43792C35.4287 5.55107 36.1502 4.82957 37.037 4.82957C37.9239 4.82957 38.6454 5.55107 38.6454 6.43792C38.6454 7.32476 37.925 8.04626 37.0382 8.04626C36.1502 8.04626 35.4287 7.32476 35.4287 6.43792ZM17.2975 6.43792C17.2975 4.7232 18.692 3.32876 20.4067 3.32876C22.1214 3.32876 23.5159 4.7232 23.5159 6.43792C23.5159 8.15264 22.1214 9.54823 20.4067 9.54823C18.692 9.54823 17.2975 8.15264 17.2975 6.43792ZM11.8932 34.2561C10.8491 35.5477 8.81414 35.765 7.52029 34.7198C6.87395 34.1972 6.47042 33.4549 6.38254 32.6293C6.29582 31.8026 6.53401 30.9932 7.05664 30.3469C7.64979 29.6126 8.53201 29.1918 9.47782 29.1918C10.1947 29.1918 10.8711 29.43 11.4296 29.882C12.0759 30.4047 12.4794 31.147 12.5673 31.9725C12.654 32.8004 12.4147 33.611 11.8932 34.2561ZM48.3082 66.5918C48.5672 67.3815 48.5036 68.2245 48.1278 68.9645C47.5959 70.0178 46.531 70.6699 45.3505 70.6699C44.8614 70.6699 44.3896 70.5578 43.9503 70.3346C42.4205 69.5599 41.8066 67.6856 42.5813 66.1571C43.1131 65.1037 44.178 64.4516 45.3586 64.4516C45.8488 64.4516 46.3194 64.5638 46.7588 64.7869C47.5 65.1627 48.0503 65.8033 48.3082 66.5918ZM66.0254 39.1413C66.9134 39.1413 67.6349 39.8628 67.6349 40.7496C67.6349 41.6365 66.9134 42.358 66.0254 42.358C65.1385 42.358 64.417 41.6365 64.417 40.7496C64.417 39.8628 65.1385 39.1413 66.0254 39.1413ZM22.0925 55.0663C21.2057 55.0663 20.4842 54.3448 20.4842 53.458C20.4842 52.5711 21.2057 51.8496 22.0925 51.8496C22.9794 51.8496 23.7009 52.5711 23.7009 53.458C23.7009 54.3448 22.9805 55.0663 22.0925 55.0663ZM40.1774 50.964C30.8349 50.964 23.236 43.3639 23.236 34.0214C23.236 24.6789 30.8361 17.08 40.1774 17.08C49.5188 17.08 57.1188 24.6789 57.1188 34.0214C57.1188 43.3639 49.5188 50.964 40.1774 50.964ZM63.2747 10.9299C64.9894 10.9299 66.385 12.3244 66.385 14.0391C66.385 15.7538 64.9894 17.1483 63.2747 17.1483C61.5599 17.1483 60.1655 15.7538 60.1655 14.0391C60.1655 12.3244 61.5599 10.9299 63.2747 10.9299Z" fill="#126966" stroke="#F9F9F9" stroke-width="0.8" mask="url(#path-1-inside-1_594_1019)"/>
<path d="M36.1571 23.8328C39.0204 23.8328 41.3512 26.1629 41.3514 29.0261C41.3514 31.8907 39.0205 34.2214 36.1571 34.2214C33.2939 34.2212 30.9637 31.8906 30.9637 29.0261C30.9639 26.163 33.294 23.833 36.1571 23.8328ZM36.1571 25.7175C34.3322 25.7177 32.8487 27.2012 32.8485 29.0261C32.8485 30.8511 34.332 32.3365 36.1571 32.3367C37.9824 32.3367 39.4667 30.8512 39.4667 29.0261C39.4665 27.2011 37.9822 25.7175 36.1571 25.7175Z" fill="#1E232F" stroke="#F9F9F9" stroke-width="0.4"/>
<path d="M49.6923 31.5334C51.7276 31.5337 53.3846 33.1914 53.3846 35.2268C53.3844 37.2632 51.7274 38.9199 49.6923 38.9202C47.6569 38.9202 45.9992 37.2633 45.9989 35.2268C45.9989 33.1913 47.6567 31.5334 49.6923 31.5334ZM49.6932 33.4182C48.6959 33.4182 47.8846 34.2295 47.8846 35.2268C47.8849 36.225 48.696 37.0354 49.6932 37.0354C50.6903 37.0352 51.5006 36.2249 51.5009 35.2268C51.5009 34.2296 50.6904 33.4184 49.6932 33.4182Z" fill="#1E232F" stroke="#F9F9F9" stroke-width="0.4"/>
<path d="M40.0223 39.1321C42.0588 39.1323 43.7156 40.7894 43.7147 42.8245V42.8254C43.7145 44.8606 42.0575 46.5176 40.0223 46.5178C37.987 46.5178 36.3292 44.8608 36.329 42.8254C36.329 40.7899 37.9868 39.1321 40.0223 39.1321ZM40.0223 41.0178C39.025 41.0178 38.2137 41.8291 38.2137 42.8264C38.2139 43.8236 39.0251 44.634 40.0223 44.634C41.0205 44.6338 41.8313 43.8217 41.83 42.8254C41.8296 41.8286 41.0192 41.0181 40.0223 41.0178Z" fill="#1E232F" stroke="#F9F9F9" stroke-width="0.4"/>
</svg>
