<svg width="65" height="76" viewBox="0 0 65 76" fill="none" xmlns="http://www.w3.org/2000/svg">
<mask id="path-1-inside-1_576_2769" fill="white">
<path d="M59.6844 39.9616H57.8095V17.6034C57.8095 17.2588 57.6926 16.9284 57.4846 16.6847C57.2766 16.4411 56.9944 16.3042 56.7001 16.3042H54.3594V12.9914C54.3594 12.6469 54.2425 12.3164 54.0344 12.0728C53.8264 11.8291 53.5442 11.6923 53.25 11.6923H51.6303V1.29914C51.6303 0.954587 51.5134 0.624146 51.3054 0.380509C51.0973 0.136873 50.8152 0 50.5209 0C50.2267 0 49.9445 0.136873 49.7365 0.380509C49.5284 0.624146 49.4116 0.954587 49.4116 1.29914V11.6923H47.803C47.5087 11.6923 47.2266 11.8291 47.0185 12.0728C46.8105 12.3164 46.6936 12.6469 46.6936 12.9914V16.3042H44.375C44.0808 16.3042 43.7986 16.4411 43.5905 16.6847C43.3825 16.9284 43.2656 17.2588 43.2656 17.6034V39.9616H38.1181V28.0225C38.1119 26.6847 37.7613 25.3801 37.1121 24.2793C36.463 23.1784 35.5455 22.3323 34.4794 21.8515L32.4159 20.9422C31.6511 20.6007 30.9925 19.9959 30.5271 19.2074C30.0617 18.4188 29.8113 17.4836 29.8089 16.5251V12.8355H30.8184C31.1127 12.8355 31.3948 12.6986 31.6029 12.455C31.8109 12.2114 31.9278 11.8809 31.9278 11.5364V1.29914C31.9278 0.954587 31.8109 0.624146 31.6029 0.380509C31.3948 0.136873 31.1127 0 30.8184 0H7.29969C7.00546 0 6.72329 0.136873 6.51524 0.380509C6.30719 0.624146 6.19031 0.954587 6.19031 1.29914V11.5364C6.19031 11.8809 6.30719 12.2114 6.51524 12.455C6.72329 12.6986 7.00546 12.8355 7.29969 12.8355H8.30922V16.5251C8.30683 17.4836 8.05642 18.4188 7.59101 19.2074C7.12561 19.9959 6.46705 20.6007 5.70219 20.9422L3.63875 21.8515C2.57265 22.3323 1.65511 23.1784 1.00597 24.2793C0.356827 25.3801 0.00624287 26.6847 0 28.0225V67.9321C0 69.8995 0.667386 71.7863 1.85534 73.1775C2.44356 73.8663 3.14187 74.4127 3.91041 74.7855C4.67895 75.1583 5.50267 75.3502 6.33453 75.3502H59.6844C60.9201 75.3502 62.1052 74.7753 62.979 73.752C63.8528 72.7288 64.3437 71.3409 64.3437 69.8938V45.4699C64.3481 44.7495 64.2309 44.0352 63.9989 43.3679C63.7668 42.7007 63.4245 42.0937 62.9915 41.5819C62.5586 41.07 62.0435 40.6634 61.476 40.3853C60.9084 40.1073 60.2996 39.9633 59.6844 39.9616ZM8.40906 2.59828H29.7091V10.2372H8.40906V2.59828ZM48.9123 14.2905H52.1406V16.3042H48.9123V14.2905ZM45.4844 18.9025H55.613V23.5794H52.9172C52.623 23.5794 52.3408 23.7163 52.1327 23.9599C51.9247 24.2036 51.8078 24.534 51.8078 24.8785C51.8078 25.2231 51.9247 25.5535 52.1327 25.7972C52.3408 26.0408 52.623 26.1777 52.9172 26.1777H55.5908V29.5684H50.6208C50.3266 29.5684 50.0444 29.7053 49.8363 29.949C49.6283 30.1926 49.5114 30.523 49.5114 30.8676C49.5114 31.2121 49.6283 31.5426 49.8363 31.7862C50.0444 32.0299 50.3266 32.1667 50.6208 32.1667H55.5908V35.5575H52.9172C52.623 35.5575 52.3408 35.6944 52.1327 35.938C51.9247 36.1816 51.8078 36.5121 51.8078 36.8566C51.8078 37.2012 51.9247 37.5316 52.1327 37.7753C52.3408 38.0189 52.623 38.1558 52.9172 38.1558H55.5908V39.9616H45.4844V18.9025ZM14.6437 39.9616C14.0285 39.9633 13.4197 40.1073 12.8521 40.3853C12.2846 40.6634 11.7695 41.07 11.3366 41.5819C10.9036 42.0937 10.5613 42.7007 10.3292 43.3679C10.0972 44.0352 9.97999 44.7495 9.98437 45.4699V56.4087H2.21875V32.0758H35.8994V39.9616H14.6437ZM4.4375 24.2939L6.48984 23.3845C7.67553 22.856 8.69634 21.9186 9.41736 20.6961C10.1384 19.4737 10.5256 18.0238 10.528 16.5381V12.8355H27.5902V16.5251C27.5902 18.013 27.9765 19.4657 28.6976 20.6908C29.4188 21.9158 30.4408 22.8552 31.6283 23.3845L33.6917 24.3069C34.3408 24.5915 34.9007 25.1006 35.297 25.7665C35.6932 26.4325 35.9072 27.2238 35.9105 28.0355V29.4905H2.21875V28.0225C2.222 27.2108 2.43597 26.4195 2.83225 25.7535C3.22853 25.0876 3.78838 24.5785 4.4375 24.2939ZM2.21875 67.9321V58.955H9.98437V69.8938C9.98612 70.9058 10.2323 71.8967 10.6944 72.7519H6.33453C5.24296 72.7519 4.19609 72.2441 3.42423 71.3402C2.65238 70.4363 2.21875 69.2104 2.21875 67.9321ZM62.125 69.8938C62.1221 70.6507 61.864 71.3757 61.4069 71.911C60.9499 72.4463 60.3308 72.7485 59.6844 72.7519H14.6437C13.9974 72.7485 13.3783 72.4463 12.9212 71.911C12.4641 71.3757 12.206 70.6507 12.2031 69.8938V45.4699C12.206 44.713 12.4641 43.988 12.9212 43.4527C13.3783 42.9175 13.9974 42.6152 14.6437 42.6118H59.6844C60.3308 42.6152 60.9499 42.9175 61.4069 43.4527C61.864 43.988 62.1221 44.713 62.125 45.4699V69.8938Z"/>
</mask>
<path d="M59.6844 39.9616H57.8095V17.6034C57.8095 17.2588 57.6926 16.9284 57.4846 16.6847C57.2766 16.4411 56.9944 16.3042 56.7001 16.3042H54.3594V12.9914C54.3594 12.6469 54.2425 12.3164 54.0344 12.0728C53.8264 11.8291 53.5442 11.6923 53.25 11.6923H51.6303V1.29914C51.6303 0.954587 51.5134 0.624146 51.3054 0.380509C51.0973 0.136873 50.8152 0 50.5209 0C50.2267 0 49.9445 0.136873 49.7365 0.380509C49.5284 0.624146 49.4116 0.954587 49.4116 1.29914V11.6923H47.803C47.5087 11.6923 47.2266 11.8291 47.0185 12.0728C46.8105 12.3164 46.6936 12.6469 46.6936 12.9914V16.3042H44.375C44.0808 16.3042 43.7986 16.4411 43.5905 16.6847C43.3825 16.9284 43.2656 17.2588 43.2656 17.6034V39.9616H38.1181V28.0225C38.1119 26.6847 37.7613 25.3801 37.1121 24.2793C36.463 23.1784 35.5455 22.3323 34.4794 21.8515L32.4159 20.9422C31.6511 20.6007 30.9925 19.9959 30.5271 19.2074C30.0617 18.4188 29.8113 17.4836 29.8089 16.5251V12.8355H30.8184C31.1127 12.8355 31.3948 12.6986 31.6029 12.455C31.8109 12.2114 31.9278 11.8809 31.9278 11.5364V1.29914C31.9278 0.954587 31.8109 0.624146 31.6029 0.380509C31.3948 0.136873 31.1127 0 30.8184 0H7.29969C7.00546 0 6.72329 0.136873 6.51524 0.380509C6.30719 0.624146 6.19031 0.954587 6.19031 1.29914V11.5364C6.19031 11.8809 6.30719 12.2114 6.51524 12.455C6.72329 12.6986 7.00546 12.8355 7.29969 12.8355H8.30922V16.5251C8.30683 17.4836 8.05642 18.4188 7.59101 19.2074C7.12561 19.9959 6.46705 20.6007 5.70219 20.9422L3.63875 21.8515C2.57265 22.3323 1.65511 23.1784 1.00597 24.2793C0.356827 25.3801 0.00624287 26.6847 0 28.0225V67.9321C0 69.8995 0.667386 71.7863 1.85534 73.1775C2.44356 73.8663 3.14187 74.4127 3.91041 74.7855C4.67895 75.1583 5.50267 75.3502 6.33453 75.3502H59.6844C60.9201 75.3502 62.1052 74.7753 62.979 73.752C63.8528 72.7288 64.3437 71.3409 64.3437 69.8938V45.4699C64.3481 44.7495 64.2309 44.0352 63.9989 43.3679C63.7668 42.7007 63.4245 42.0937 62.9915 41.5819C62.5586 41.07 62.0435 40.6634 61.476 40.3853C60.9084 40.1073 60.2996 39.9633 59.6844 39.9616ZM8.40906 2.59828H29.7091V10.2372H8.40906V2.59828ZM48.9123 14.2905H52.1406V16.3042H48.9123V14.2905ZM45.4844 18.9025H55.613V23.5794H52.9172C52.623 23.5794 52.3408 23.7163 52.1327 23.9599C51.9247 24.2036 51.8078 24.534 51.8078 24.8785C51.8078 25.2231 51.9247 25.5535 52.1327 25.7972C52.3408 26.0408 52.623 26.1777 52.9172 26.1777H55.5908V29.5684H50.6208C50.3266 29.5684 50.0444 29.7053 49.8363 29.949C49.6283 30.1926 49.5114 30.523 49.5114 30.8676C49.5114 31.2121 49.6283 31.5426 49.8363 31.7862C50.0444 32.0299 50.3266 32.1667 50.6208 32.1667H55.5908V35.5575H52.9172C52.623 35.5575 52.3408 35.6944 52.1327 35.938C51.9247 36.1816 51.8078 36.5121 51.8078 36.8566C51.8078 37.2012 51.9247 37.5316 52.1327 37.7753C52.3408 38.0189 52.623 38.1558 52.9172 38.1558H55.5908V39.9616H45.4844V18.9025ZM14.6437 39.9616C14.0285 39.9633 13.4197 40.1073 12.8521 40.3853C12.2846 40.6634 11.7695 41.07 11.3366 41.5819C10.9036 42.0937 10.5613 42.7007 10.3292 43.3679C10.0972 44.0352 9.97999 44.7495 9.98437 45.4699V56.4087H2.21875V32.0758H35.8994V39.9616H14.6437ZM4.4375 24.2939L6.48984 23.3845C7.67553 22.856 8.69634 21.9186 9.41736 20.6961C10.1384 19.4737 10.5256 18.0238 10.528 16.5381V12.8355H27.5902V16.5251C27.5902 18.013 27.9765 19.4657 28.6976 20.6908C29.4188 21.9158 30.4408 22.8552 31.6283 23.3845L33.6917 24.3069C34.3408 24.5915 34.9007 25.1006 35.297 25.7665C35.6932 26.4325 35.9072 27.2238 35.9105 28.0355V29.4905H2.21875V28.0225C2.222 27.2108 2.43597 26.4195 2.83225 25.7535C3.22853 25.0876 3.78838 24.5785 4.4375 24.2939ZM2.21875 67.9321V58.955H9.98437V69.8938C9.98612 70.9058 10.2323 71.8967 10.6944 72.7519H6.33453C5.24296 72.7519 4.19609 72.2441 3.42423 71.3402C2.65238 70.4363 2.21875 69.2104 2.21875 67.9321ZM62.125 69.8938C62.1221 70.6507 61.864 71.3757 61.4069 71.911C60.9499 72.4463 60.3308 72.7485 59.6844 72.7519H14.6437C13.9974 72.7485 13.3783 72.4463 12.9212 71.911C12.4641 71.3757 12.206 70.6507 12.2031 69.8938V45.4699C12.206 44.713 12.4641 43.988 12.9212 43.4527C13.3783 42.9175 13.9974 42.6152 14.6437 42.6118H59.6844C60.3308 42.6152 60.9499 42.9175 61.4069 43.4527C61.864 43.988 62.1221 44.713 62.125 45.4699V69.8938Z" fill="#126966" stroke="white" stroke-width="0.4" mask="url(#path-1-inside-1_576_2769)"/>
<path d="M55.3907 58.7817C56.5778 58.7817 57.7205 59.3335 58.5665 60.3218C59.4129 61.3106 59.8918 62.6552 59.8947 64.061C59.8968 65.1112 59.6334 66.1378 59.1378 67.0103C58.6423 67.8826 57.9385 68.561 57.1173 68.9614C56.2965 69.3616 55.3935 69.4664 54.5226 69.2651C53.6514 69.0638 52.8482 68.5642 52.2159 67.8257C51.5836 67.087 51.1505 66.1433 50.9747 65.1138C50.799 64.0841 50.8882 63.016 51.2306 62.0464C51.5729 61.0769 52.1527 60.2506 52.8937 59.6704C53.6344 59.0905 54.5035 58.7818 55.3907 58.7817ZM56.3478 61.3901C55.8918 61.169 55.3888 61.1111 54.9034 61.2241C54.4183 61.3371 53.9743 61.6155 53.6281 62.021C53.2822 62.4262 53.0481 62.9406 52.9532 63.4985C52.8584 64.0568 52.9067 64.636 53.0929 65.1626C53.2791 65.6891 53.5957 66.1418 54.004 66.4614C54.4127 66.7812 54.8955 66.9535 55.3907 66.9536C56.0554 66.9536 56.689 66.6439 57.1534 66.1001C57.6173 65.5569 57.876 64.8235 57.8761 64.061C57.8761 63.4921 57.7321 62.9346 57.4611 62.4595C57.19 61.9844 56.8033 61.6112 56.3478 61.3901Z" fill="#1E232F" stroke="white" stroke-width="0.2"/>
<path d="M43.2646 58.7817C44.4499 58.7851 45.5899 59.3387 46.4336 60.3267C47.2775 61.3151 47.7549 62.6575 47.7578 64.061C47.7599 65.1117 47.496 66.1385 47 67.0112C46.504 67.884 45.7994 68.5624 44.9775 68.9624C44.1561 69.3622 43.253 69.4664 42.3818 69.2642C41.5103 69.0618 40.707 68.5607 40.0752 67.8208C39.4433 67.0808 39.0115 66.1363 38.8369 65.106C38.6624 64.0755 38.7536 63.007 39.0977 62.0376C39.4417 61.0685 40.0224 60.2432 40.7646 59.6646C41.5067 59.0862 42.377 58.7793 43.2646 58.7817ZM44.208 61.3892C43.7513 61.1684 43.2475 61.1109 42.7617 61.2251C42.2764 61.3393 41.833 61.6192 41.4873 62.0259C41.1419 62.4325 40.9089 62.9483 40.8154 63.5073C40.7219 64.0665 40.7719 64.6459 40.96 65.1724C41.148 65.6987 41.466 66.1503 41.876 66.4683C42.2862 66.7864 42.7699 66.9562 43.2656 66.9536C43.9281 66.95 44.5587 66.6393 45.0205 66.0962C45.4819 65.5534 45.7392 64.8212 45.7393 64.061C45.7393 63.4915 45.5948 62.9329 45.3232 62.4575C45.0516 61.9823 44.6642 61.6097 44.208 61.3892Z" fill="#1E232F" stroke="white" stroke-width="0.2"/>
<path d="M31.0625 58.7817C32.2496 58.7817 33.3923 59.3335 34.2383 60.3218C35.0847 61.3106 35.5635 62.6552 35.5664 64.061C35.5685 65.1112 35.3051 66.1378 34.8096 67.0103C34.3141 67.8826 33.6102 68.561 32.7891 68.9614C31.9682 69.3616 31.0653 69.4664 30.1943 69.2651C29.3232 69.0638 28.5199 68.5642 27.8877 67.8257C27.2554 67.087 26.8222 66.1433 26.6465 65.1138C26.4708 64.0841 26.56 63.016 26.9023 62.0464C27.2447 61.0769 27.8245 60.2506 28.5654 59.6704C29.3061 59.0905 30.1752 58.7818 31.0625 58.7817ZM32.0195 61.3901C31.5636 61.169 31.0606 61.1111 30.5752 61.2241C30.09 61.3371 29.646 61.6155 29.2998 62.021C28.954 62.4262 28.7198 62.9406 28.625 63.4985C28.5302 64.0568 28.5784 64.636 28.7646 65.1626C28.9509 65.6891 29.2674 66.1418 29.6758 66.4614C30.0335 66.7413 30.4481 66.9085 30.8779 66.9458L31.0625 66.9536C31.3916 66.9554 31.7173 66.8809 32.0205 66.7349C32.3238 66.5887 32.5989 66.3736 32.8291 66.104C33.0591 65.8345 33.2411 65.515 33.3643 65.1646C33.4874 64.814 33.5494 64.4384 33.5479 64.0601C33.5478 63.4913 33.4038 62.9344 33.1328 62.4595C32.8617 61.9844 32.4751 61.6112 32.0195 61.3901Z" fill="#1E232F" stroke="white" stroke-width="0.2"/>
<path d="M18.9375 58.7817C20.1246 58.7817 21.2673 59.3335 22.1133 60.3218C22.9597 61.3106 23.4385 62.6552 23.4414 64.061C23.4435 65.1112 23.1801 66.1378 22.6846 67.0103C22.1891 67.8826 21.4852 68.561 20.6641 68.9614C19.8432 69.3616 18.9403 69.4664 18.0693 69.2651C17.1982 69.0638 16.3949 68.5642 15.7627 67.8257C15.1304 67.087 14.6972 66.1433 14.5215 65.1138C14.3458 64.0841 14.435 63.016 14.7773 62.0464C15.1197 61.0769 15.6995 60.2506 16.4404 59.6704C17.1811 59.0905 18.0502 58.7818 18.9375 58.7817ZM19.8945 61.3901C19.4386 61.169 18.9356 61.1111 18.4502 61.2241C17.965 61.3371 17.521 61.6155 17.1748 62.021C16.829 62.4262 16.5948 62.9406 16.5 63.4985C16.4052 64.0568 16.4534 64.636 16.6396 65.1626C16.8259 65.6891 17.1424 66.1418 17.5508 66.4614C17.9595 66.7812 18.4423 66.9535 18.9375 66.9536C19.6022 66.9536 20.2358 66.6439 20.7002 66.1001C21.164 65.5569 21.4227 64.8235 21.4229 64.061C21.4229 63.4921 21.2788 62.9346 21.0078 62.4595C20.7367 61.9844 20.3501 61.6112 19.8945 61.3901Z" fill="#1E232F" stroke="white" stroke-width="0.2"/>
<path d="M55.3907 45.959C56.5797 45.959 57.7241 46.5128 58.5704 47.5039C59.417 48.4954 59.8947 49.8431 59.8947 51.251C59.8946 52.3006 59.6288 53.3255 59.132 54.1963C58.6352 55.067 57.9308 55.7431 57.1095 56.1416C56.2885 56.5399 55.386 56.6441 54.5157 56.4414C53.6452 56.2386 52.8432 55.7372 52.212 54.998C51.5808 54.2588 51.1496 53.3153 50.9747 52.2861C50.7999 51.2568 50.8889 50.1895 51.2316 49.2207C51.5742 48.252 52.1539 47.4263 52.8947 46.8467C53.6351 46.2673 54.504 45.9591 55.3907 45.959ZM56.3478 48.5801C55.8919 48.3589 55.3888 48.3011 54.9034 48.4141C54.4183 48.5271 53.9743 48.8055 53.6281 49.2109C53.2821 49.6162 53.0481 50.1313 52.9532 50.6895C52.8585 51.2477 52.9066 51.8269 53.0929 52.3535C53.2792 52.8801 53.5956 53.3328 54.004 53.6523C54.4127 53.9721 54.8955 54.1435 55.3907 54.1436C55.7195 54.1436 56.0452 54.0677 56.3478 53.9209C56.6501 53.7742 56.9237 53.56 57.1534 53.291C57.3832 53.022 57.5649 52.7031 57.6886 52.3535C57.8123 52.0038 57.8761 51.6288 57.8761 51.251C57.8761 50.682 57.7321 50.1245 57.4611 49.6494C57.19 49.1743 56.8034 48.8011 56.3478 48.5801Z" fill="#1E232F" stroke="white" stroke-width="0.2"/>
<path d="M43.2646 45.959C44.4517 45.9623 45.5935 46.5171 46.4375 47.5078C47.2819 48.499 47.7578 49.8452 47.7578 51.251C47.7578 52.3012 47.4925 53.3272 46.9951 54.1982C46.4978 55.0693 45.7918 55.7455 44.9697 56.1436C44.1482 56.5413 43.2454 56.6441 42.375 56.4404C41.5043 56.2367 40.702 55.7344 40.0713 54.9941C39.4404 54.2536 39.0096 53.3084 38.8359 52.2783C38.6623 51.2482 38.7543 50.1805 39.0986 49.2119C39.4429 48.2436 40.0236 47.4189 40.7656 46.8408C41.5075 46.263 42.3774 45.9566 43.2646 45.959ZM44.208 48.5791C43.7513 48.3583 43.2475 48.3009 42.7617 48.415C42.2763 48.5292 41.833 48.8091 41.4873 49.2158C41.1418 49.6224 40.909 50.1383 40.8154 50.6973C40.7219 51.2565 40.7719 51.8358 40.96 52.3623C41.148 52.8887 41.466 53.3402 41.876 53.6582C42.2862 53.9764 42.7699 54.1462 43.2656 54.1436C43.9281 54.1399 44.5586 53.8294 45.0205 53.2861C45.482 52.7432 45.7392 52.0113 45.7393 51.251C45.7393 50.6815 45.5948 50.1238 45.3232 49.6484C45.0516 49.173 44.6643 48.7997 44.208 48.5791Z" fill="#1E232F" stroke="white" stroke-width="0.2"/>
<path d="M31.0625 45.959C32.2515 45.959 33.3959 46.5128 34.2422 47.5039C35.0888 48.4954 35.5664 49.8431 35.5664 51.251C35.5664 52.3006 35.3005 53.3255 34.8037 54.1963C34.3069 55.067 33.6026 55.7431 32.7812 56.1416C31.9602 56.5399 31.0578 56.6441 30.1875 56.4414C29.317 56.2386 28.515 55.7372 27.8838 54.998C27.2525 54.2588 26.8214 53.3153 26.6465 52.2861C26.4716 51.2568 26.5606 50.1895 26.9033 49.2207C27.246 48.252 27.8257 47.4263 28.5664 46.8467C29.3069 46.2673 30.1757 45.9591 31.0625 45.959ZM32.0195 48.5801C31.5636 48.3589 31.0606 48.3011 30.5752 48.4141C30.09 48.5271 29.646 48.8055 29.2998 49.2109C28.9538 49.6162 28.7198 50.1313 28.625 50.6895C28.5302 51.2477 28.5784 51.8269 28.7646 52.3535C28.951 52.8801 29.2674 53.3328 29.6758 53.6523C30.0844 53.9721 30.5673 54.1435 31.0625 54.1436C31.3913 54.1436 31.7169 54.0677 32.0195 53.9209C32.3218 53.7742 32.5954 53.56 32.8252 53.291C33.0549 53.022 33.2366 52.7031 33.3604 52.3535C33.4841 52.0038 33.5478 51.6288 33.5479 51.251C33.5479 50.682 33.4039 50.1245 33.1328 49.6494C32.8617 49.1743 32.4751 48.8011 32.0195 48.5801Z" fill="#1E232F" stroke="white" stroke-width="0.2"/>
<path d="M18.9375 45.959C20.1265 45.959 21.2709 46.5128 22.1172 47.5039C22.9638 48.4954 23.4414 49.8431 23.4414 51.251C23.4414 52.3006 23.1755 53.3255 22.6787 54.1963C22.1819 55.067 21.4776 55.7431 20.6562 56.1416C19.8352 56.5399 18.9328 56.6441 18.0625 56.4414C17.192 56.2386 16.39 55.7372 15.7588 54.998C15.1275 54.2588 14.6964 53.3153 14.5215 52.2861C14.3466 51.2568 14.4356 50.1895 14.7783 49.2207C15.121 48.252 15.7007 47.4263 16.4414 46.8467C17.1819 46.2673 18.0507 45.9591 18.9375 45.959ZM19.8945 48.5801C19.4386 48.3589 18.9356 48.3011 18.4502 48.4141C17.965 48.5271 17.521 48.8055 17.1748 49.2109C16.8288 49.6162 16.5948 50.1313 16.5 50.6895C16.4052 51.2477 16.4534 51.8269 16.6396 52.3535C16.826 52.8801 17.1424 53.3328 17.5508 53.6523C17.9595 53.9721 18.4423 54.1435 18.9375 54.1436H18.9385C19.602 54.14 20.2336 53.83 20.6973 53.2871C21.1605 52.7446 21.4198 52.0125 21.4229 51.251L21.416 51.0381C21.3847 50.5438 21.245 50.0651 21.0078 49.6494C20.7367 49.1743 20.3501 48.8011 19.8945 48.5801Z" fill="#1E232F" stroke="white" stroke-width="0.2"/>
</svg>
